<?xml version="1.0" encoding="UTF-8" standalone="no"?>
<!-- Created with Inkscape (http://www.inkscape.org/) -->

<svg
   width="192.67812"
   height="182.77402"
   viewBox="0 0 50.979418 48.358957"
   version="1.1"
   id="svg2823"
   sodipodi:docname="helmet.svg"
   inkscape:version="1.1.1 (3bf5ae0d25, 2021-09-20)"
   xmlns:inkscape="http://www.inkscape.org/namespaces/inkscape"
   xmlns:sodipodi="http://sodipodi.sourceforge.net/DTD/sodipodi-0.dtd"
   xmlns="http://www.w3.org/2000/svg"
   xmlns:svg="http://www.w3.org/2000/svg">
  <sodipodi:namedview
     id="namedview2825"
     pagecolor="#ffffff"
     bordercolor="#666666"
     borderopacity="1.0"
     inkscape:pageshadow="2"
     inkscape:pageopacity="0.0"
     inkscape:pagecheckerboard="0"
     inkscape:document-units="mm"
     showgrid="false"
     units="px"
     showguides="false"
     inkscape:zoom="2.3375"
     inkscape:cx="62.032086"
     inkscape:cy="145.88235"
     inkscape:window-width="1920"
     inkscape:window-height="1010"
     inkscape:window-x="-6"
     inkscape:window-y="-6"
     inkscape:window-maximized="1"
     inkscape:current-layer="layer1">
    <inkscape:grid
       type="xygrid"
       id="grid24267"
       originx="-218.44182"
       originy="53.572377" />
  </sodipodi:namedview>
  <defs
     id="defs2820" />
  <g
     inkscape:label="Warstwa 1"
     inkscape:groupmode="layer"
     id="layer1"
     transform="translate(-176.01828,49.816176)">
    <path
       style="fill:#d2d2d2;fill-opacity:1;stroke:none;stroke-width:1.05833;stroke-linecap:round;stroke-linejoin:round;stroke-miterlimit:4;stroke-dasharray:none;stroke-opacity:1;paint-order:normal"
       d="m 177.18062,-1.5354638 c -1.30411,-4.764421 -0.94846,-16.1104642 3.31335,-28.3071002 2.52027,-7.212648 6.88015,-15.239989 13.96837,-17.966588 7.08823,-2.7266 22.44918,-0.511977 27.27285,10.039152 2.07806,4.545477 2.38319,9.322386 3.07113,14.074862 1.05155,7.264413 1.72016,17.5942862 1.59898,21.9622482 -4.35721,0.395487 -20.48298,0.27872 -29.64136,-0.381551 -8.65873,-0.624249 -15.14612,-0.609622 -19.58332,0.578977 z"
       id="path2964-7"
       sodipodi:nodetypes="cszsacsc" />
    <path
       style="fill:#5f5f5f;fill-opacity:1;stroke:none;stroke-width:0.264583px;stroke-linecap:butt;stroke-linejoin:miter;stroke-opacity:1"
       d="m 222.87999,-17.066178 c 0.0793,3.489739 0.45172,4.894611 0.55898,8.380804 0.0177,0.574182 0.66486,3.090536 0.37931,3.529784 -2.49737,1.410261 -7.55845,1.519838 -9.70907,2.910429 2.44116,0.506225 10.68671,-0.0076 11.47848,-0.271515 1.38528,-0.46178 0.5721,-2.422505 0.5721,-3.84748 0,-4.566115 -0.27907,-8.469269 -0.86089,-13.041134 -0.20209,-1.587897 -0.26629,-3.934309 -0.56151,-5.498983 -0.39799,-2.109416 -1.34841,-9.633443 -2.34274,-9.523042 0.27672,4.185251 0.27413,8.084122 0.36533,12.078629 z"
       id="path2531"
       sodipodi:nodetypes="ssccsssscss" />
    <path
       style="fill:#fbfbfd;fill-opacity:1;stroke:none;stroke-width:0.264583px;stroke-linecap:butt;stroke-linejoin:miter;stroke-opacity:1"
       d="m 190.40979,-41.222964 c 0.33781,-0.337816 2.42634,-2.268877 3.0464,-1.75214 0.82479,0.687357 -3.41884,4.269467 -3.96821,4.855487 -1.5069,1.607433 -2.97628,3.244806 -4.06606,5.168032 -0.88286,1.558056 -0.58643,3.894596 -2.24013,4.728285 -0.53955,-4.497315 3.99331,-9.764832 7.228,-12.999664 z"
       id="path2285"
       sodipodi:nodetypes="sssscs" />
    <path
       style="fill:#4f4f4f;fill-opacity:1;stroke:#000000;stroke-width:1.05833;stroke-linecap:round;stroke-linejoin:round;stroke-miterlimit:4;stroke-dasharray:none;stroke-opacity:1"
       d="m 184.07426,-7.33019 c 0.38919,-0.436889 -0.80769,-0.391721 3.76417,-0.290189 6.99377,0.155318 22.37492,0.573576 24.16579,0.573576 4.02682,0 5.10665,-0.02153 7.6231,0.185253 0.0954,-0.385664 -0.51974,0.03159 -0.53969,-0.365648 -0.0832,-1.656965 -0.95114,-3.559619 -0.77701,-6.91737 0.21587,-4.16274 0.48412,-6.540742 -0.19745,-8.426748 -6.86491,-0.08929 -31.02808,4.094277 -35.00437,0.63818 0.38778,3.851203 0.59117,10.277921 0.888,14.101223 0.0251,0.323266 0.0509,0.218811 0.0775,0.501723 z"
       id="path1503"
       sodipodi:nodetypes="csscssccsc" />
    <path
       style="fill:#a8a8a8;fill-opacity:1;stroke:none;stroke-width:0.264583px;stroke-linecap:butt;stroke-linejoin:miter;stroke-opacity:1"
       d="m 186.76644,-18.158536 c -1.87214,-0.225185 -2.35176,3.745363 -1.83483,4.055534 0.0553,0.03321 0.16298,-0.536495 0.42302,-0.947105 0.78524,-1.239901 1.61712,-1.705444 1.41181,-3.108429 z"
       id="path2529"
       sodipodi:nodetypes="cssc" />
    <path
       style="fill:none;fill-opacity:1;stroke:#000000;stroke-width:1.05833;stroke-linecap:round;stroke-linejoin:round;stroke-miterlimit:4;stroke-dasharray:none;stroke-opacity:1;paint-order:normal"
       d="m 177.22897,-2.020087 c -1.30411,-4.764421 -0.94846,-16.110464 3.31335,-28.3071 2.52027,-7.212648 6.88015,-15.239989 13.96837,-17.966588 7.08823,-2.7266 22.44918,-0.511977 27.27285,10.039152 2.07806,4.545477 2.38319,9.322386 3.07113,14.074862 1.05155,7.264413 1.72016,17.594286 1.59898,21.962248 -4.35721,0.395487 -20.48298,0.27872 -29.64136,-0.381551 -8.65873,-0.624249 -15.14612,-0.609622 -19.58332,0.578977 z"
       id="path2964"
       sodipodi:nodetypes="cszsacsc" />
  </g>
</svg>
