<?xml version="1.0" encoding="UTF-8" standalone="no"?>
<!-- Created with Inkscape (http://www.inkscape.org/) -->

<svg
   width="233.92067"
   height="117.85557"
   viewBox="0 0 61.89151 31.182619"
   version="1.1"
   id="svg121479"
   inkscape:version="1.1.1 (3bf5ae0d25, 2021-09-20)"
   sodipodi:docname="TytusBombaBeard.svg"
   xmlns:inkscape="http://www.inkscape.org/namespaces/inkscape"
   xmlns:sodipodi="http://sodipodi.sourceforge.net/DTD/sodipodi-0.dtd"
   xmlns="http://www.w3.org/2000/svg"
   xmlns:svg="http://www.w3.org/2000/svg">
  <sodipodi:namedview
     id="namedview121481"
     pagecolor="#ffffff"
     bordercolor="#666666"
     borderopacity="1.0"
     inkscape:pageshadow="2"
     inkscape:pageopacity="0.0"
     inkscape:pagecheckerboard="0"
     inkscape:document-units="px"
     showgrid="false"
     inkscape:zoom="1.0381216"
     inkscape:cx="338.11068"
     inkscape:cy="111.74028"
     inkscape:window-width="1920"
     inkscape:window-height="1010"
     inkscape:window-x="-6"
     inkscape:window-y="-6"
     inkscape:window-maximized="1"
     inkscape:current-layer="layer1"
     units="px" />
  <defs
     id="defs121476" />
  <g
     inkscape:label="Warstwa 1"
     inkscape:groupmode="layer"
     id="layer1"
     transform="translate(-288.72375,-502.81585)">
    <path
       id="path60773"
       style="fill:#ffb254;fill-opacity:1;stroke:none;stroke-width:0.264583;stroke-linecap:butt;stroke-linejoin:miter;stroke-miterlimit:4;stroke-dasharray:none;stroke-opacity:1"
       d="m 303.33991,520.38036 c -0.0995,1.92717 -3.03349,4.84297 -2.01253,4.86079 3.91874,0.0684 7.97875,-0.62725 11.96557,-0.38783 0.82884,0.0498 4.13477,1.53577 4.50402,1.4046 4.74402,-1.68524 9.57505,-1.53008 14.57022,-2.06614 0.93226,-0.10004 8.73183,-0.0648 8.74451,-0.79085 0.0621,-3.5591 -12.16115,-6.88935 -14.94311,-7.24772 -2.74678,-0.35384 -5.53374,-0.14229 -8.28691,-0.007 -4.87996,0.23988 -10.50031,2.97677 -14.54177,4.23415 m 3.81716,-16.10875 c 0.87333,1.44235 -1.2659,5.12105 -2.15727,6.31666 -0.61256,0.82165 -1.05066,3.25643 -1.76257,2.51919 -0.0251,-0.026 4.05078,-0.98101 4.33744,-1.03097 3.14238,-0.54764 6.40017,-1.47964 9.56719,-1.76077 4.80559,-0.42658 10.15099,-1.00026 14.91939,-0.15778 1.58838,0.28064 4.93546,1.54546 6.39143,1.13621 2.14106,-0.60182 0.32465,-8.30704 1.77891,-8.47517 2.0946,-0.24217 6.32762,13.62568 6.8009,15.17344 0.3383,1.10622 4.22419,9.39096 3.49087,9.76579 -3.88632,-0.76544 -6.16674,-0.92883 -7.91193,-0.86502 -3.20654,0.11726 -9.11495,1.57102 -14.56842,1.37973 -3.29629,-0.11562 -2.973,-1.80712 -4.8937,-2.11582 0,0 -1.06431,1.13032 0.0522,1.98041 1.58037,1.2033 1.38418,4.58458 0.69186,5.0852 -1.53715,1.11152 -4.17216,-0.094 -5.12143,-1.33695 0,0 0.17147,-2.52817 -0.28443,-3.60863 -0.59683,-1.41443 -1.74966,-1.27975 -1.76164,-0.59309 -0.0527,3.02 -4.76429,8.77749 -7.24499,5.15668 -1.92406,-2.80834 2.41809,-2.74814 3.47731,-4.98897 0.36898,-0.7806 -11.62058,-0.33629 -12.14356,-0.34542 -2.69129,-0.047 -11.56901,2.99536 -12.09063,2.23744 -0.0434,-0.063 5.60751,-10.19695 6.17809,-11.07138 1.97613,-3.02843 3.92098,-5.21637 5.03196,-9.49429 0.21591,-0.83137 0.3281,-0.55264 1.61168,-2.01758 0.7253,-0.82779 2.22195,-0.3506 2.59928,-0.99617 0.39616,-0.67778 -1.05637,-1.20319 -0.87348,-1.34563 0.80622,-1.04585 2.57761,-2.70728 3.88558,-0.54711 z"
       sodipodi:nodetypes="cssssssccssssssssscsssssssssssssssscss" />
  </g>
</svg>
