<svg width="156.05" height="70.277" version="1.1" viewBox="0 0 41.288 18.594" xmlns="http://www.w3.org/2000/svg">
 <g transform="translate(-394.86 -497.9)">
  <g transform="matrix(.99998 0 0 .99998 350.62 396.9)">
   <circle cx="46.999" cy="113.6" r=".63717" opacity=".5" style="paint-order:markers fill stroke"/>
   <circle cx="50.734" cy="113.6" r=".63717" opacity=".5" style="paint-order:markers fill stroke"/>
   <circle cx="82.847" cy="117.43" r=".63717" opacity=".5" style="paint-order:markers fill stroke"/>
   <circle cx="44.872" cy="117.55" r=".63717" opacity=".5" style="paint-order:markers fill stroke"/>
   <circle cx="84.886" cy="118.95" r=".63717" opacity=".5" style="paint-order:markers fill stroke"/>
   <circle cx="63.222" cy="113.6" r=".63717" opacity=".5" style="paint-order:markers fill stroke"/>
   <circle cx="52.454" cy="111.56" r=".63717" opacity=".5" style="paint-order:markers fill stroke"/>
   <circle cx="55.13" cy="112.09" r=".63717" opacity=".5" style="paint-order:markers fill stroke"/>
   <circle cx="58.061" cy="111.31" r=".63717" opacity=".5" style="paint-order:markers fill stroke"/>
   <circle cx="61.629" cy="111.56" r=".63717" opacity=".5" style="paint-order:markers fill stroke"/>
   <circle cx="65.07" cy="111.56" r=".63717" opacity=".5" style="paint-order:markers fill stroke"/>
   <circle cx="67.618" cy="111.56" r=".63717" opacity=".5" style="paint-order:markers fill stroke"/>
   <circle cx="48.503" cy="109.52" r=".63717" opacity=".5" style="paint-order:markers fill stroke"/>
   <circle cx="51.18" cy="109.52" r=".63717" opacity=".5" style="paint-order:markers fill stroke"/>
   <circle cx="49.639" cy="111.15" r=".63717" opacity=".5" style="paint-order:markers fill stroke"/>
   <circle cx="48.726" cy="114.38" r=".63717" opacity=".5" style="paint-order:markers fill stroke"/>
   <circle cx="54.11" cy="109.27" r=".63717" opacity=".5" style="paint-order:markers fill stroke"/>
   <circle cx="57.679" cy="109.52" r=".63717" opacity=".5" style="paint-order:markers fill stroke"/>
   <circle cx="61.119" cy="109.52" r=".63717" opacity=".5" style="paint-order:markers fill stroke"/>
   <circle cx="63.668" cy="109.52" r=".63717" opacity=".5" style="paint-order:markers fill stroke"/>
   <circle cx="59.718" cy="107.74" r=".63717" opacity=".5" style="paint-order:markers fill stroke"/>
   <circle cx="62.394" cy="107.74" r=".63717" opacity=".5" style="paint-order:markers fill stroke"/>
   <circle cx="65.325" cy="107.49" r=".63717" opacity=".5" style="paint-order:markers fill stroke"/>
   <circle cx="68.893" cy="107.74" r=".63717" opacity=".5" style="paint-order:markers fill stroke"/>
   <circle cx="72.334" cy="107.74" r=".63717" opacity=".5" style="paint-order:markers fill stroke"/>
   <circle cx="74.882" cy="107.74" r=".63717" opacity=".5" style="paint-order:markers fill stroke"/>
   <circle transform="scale(1,-1)" cx="66.834" cy="-109.89" r=".63717" opacity=".5" style="paint-order:markers fill stroke"/>
   <circle transform="scale(1,-1)" cx="69.511" cy="-109.89" r=".63717" opacity=".5" style="paint-order:markers fill stroke"/>
   <circle transform="scale(1,-1)" cx="72.442" cy="-110.14" r=".63717" opacity=".5" style="paint-order:markers fill stroke"/>
   <circle transform="scale(1,-1)" cx="76.539" cy="-109.89" r=".63717" opacity=".5" style="paint-order:markers fill stroke"/>
   <circle transform="scale(1,-1)" cx="79.45" cy="-109.89" r=".63717" opacity=".5" style="paint-order:markers fill stroke"/>
   <circle transform="scale(1,-1)" cx="81.47" cy="-109.36" r=".63717" opacity=".5" style="paint-order:markers fill stroke"/>
   <circle cx="52.326" cy="105.7" r=".63717" opacity=".5" style="paint-order:markers fill stroke"/>
   <circle cx="55.003" cy="105.7" r=".63717" opacity=".5" style="paint-order:markers fill stroke"/>
   <circle cx="57.934" cy="105.45" r=".63717" opacity=".5" style="paint-order:markers fill stroke"/>
   <circle cx="61.502" cy="105.7" r=".63717" opacity=".5" style="paint-order:markers fill stroke"/>
   <circle cx="64.942" cy="105.7" r=".63717" opacity=".5" style="paint-order:markers fill stroke"/>
   <circle cx="67.491" cy="105.7" r=".63717" opacity=".5" style="paint-order:markers fill stroke"/>
   <circle cx="55.847" cy="103.39" r=".63717" opacity=".5" style="paint-order:markers fill stroke"/>
   <circle cx="58.523" cy="103.39" r=".63717" opacity=".5" style="paint-order:markers fill stroke"/>
   <circle cx="61.454" cy="103.13" r=".63717" opacity=".5" style="paint-order:markers fill stroke"/>
   <circle cx="65.022" cy="103.39" r=".63717" opacity=".5" style="paint-order:markers fill stroke"/>
   <circle transform="scale(-1)" cx="-55.791" cy="-109.88" r=".63717" opacity=".5" style="paint-order:markers fill stroke"/>
   <circle transform="scale(-1)" cx="-52.303" cy="-107.31" r=".63717" opacity=".5" style="paint-order:markers fill stroke"/>
   <circle transform="scale(-1)" cx="-55.871" cy="-107.56" r=".63717" opacity=".5" style="paint-order:markers fill stroke"/>
   <circle cx="70.956" cy="112.59" r=".63717" opacity=".5" style="paint-order:markers fill stroke"/>
   <circle cx="74.396" cy="112.59" r=".63717" opacity=".5" style="paint-order:markers fill stroke"/>
   <circle cx="76.945" cy="112.59" r=".63717" opacity=".5" style="paint-order:markers fill stroke"/>
   <circle cx="74.476" cy="110.28" r=".63717" opacity=".5" style="paint-order:markers fill stroke"/>
   <circle cx="70.063" cy="105.2" r=".63717" opacity=".5" style="paint-order:markers fill stroke"/>
   <circle cx="73.504" cy="105.2" r=".63717" opacity=".5" style="paint-order:markers fill stroke"/>
   <circle cx="70.016" cy="102.1" r=".63717" opacity=".5" style="paint-order:markers fill stroke"/>
   <g stroke="#000" stroke-width=".26458">
    <circle cx="67.424" cy="102.66" r=".067896" opacity=".5"/>
    <circle cx="69.722" cy="103.84" r=".067896" opacity=".5"/>
    <circle cx="71.524" cy="101.76" r=".067896" opacity=".5"/>
   </g>
   <circle cx="73.584" cy="102.89" r=".63717" opacity=".5" style="paint-order:markers fill stroke"/>
   <circle transform="scale(1,-1)" cx="60.085" cy="-101.63" r=".63717" opacity=".5" style="paint-order:markers fill stroke"/>
   <circle transform="scale(1,-1)" cx="63.525" cy="-101.63" r=".63717" opacity=".5" style="paint-order:markers fill stroke"/>
   <circle transform="scale(1,-1)" cx="66.074" cy="-101.63" r=".63717" opacity=".5" style="paint-order:markers fill stroke"/>
   <circle transform="scale(1,-1)" cx="60.037" cy="-104.2" r=".63717" opacity=".5" style="paint-order:markers fill stroke"/>
   <circle transform="scale(1,-1)" cx="63.605" cy="-103.95" r=".63717" opacity=".5" style="paint-order:markers fill stroke"/>
   <circle transform="rotate(135)" cx="22.22" cy="-127.92" r=".63717" opacity=".5" style="paint-order:markers fill stroke"/>
   <circle transform="rotate(135)" cx="21.472" cy="-131.36" r=".63717" opacity=".5" style="paint-order:markers fill stroke"/>
   <circle transform="rotate(135)" cx="19.652" cy="-127.87" r=".63717" opacity=".5" style="paint-order:markers fill stroke"/>
   <circle transform="rotate(135)" cx="19.907" cy="-131.44" r=".63717" opacity=".5" style="paint-order:markers fill stroke"/>
   <circle transform="rotate(225)" cx="-137.01" cy="-20.927" r=".63717" opacity=".5" style="paint-order:markers fill stroke"/>
   <circle transform="rotate(225)" cx="-137.06" cy="-23.495" r=".63717" opacity=".5" style="paint-order:markers fill stroke"/>
   <circle transform="rotate(225)" cx="-133.49" cy="-23.24" r=".63717" opacity=".5" style="paint-order:markers fill stroke"/>
   <circle cx="68.463" cy="103.39" r=".63717" opacity=".5" style="paint-order:markers fill stroke"/>
   <circle cx="71.541" cy="103.39" r=".63717" opacity=".5" style="paint-order:markers fill stroke"/>
   <circle cx="66.79" cy="113.86" r=".63717" opacity=".5" style="paint-order:markers fill stroke"/>
   <circle cx="78.259" cy="114.62" r=".63717" opacity=".5" style="paint-order:markers fill stroke"/>
   <circle cx="81.7" cy="114.62" r=".63717" opacity=".5" style="paint-order:markers fill stroke"/>
   <circle cx="83.611" cy="115.13" r=".63717" opacity=".5" style="paint-order:markers fill stroke"/>
   <g stroke="#000" stroke-width=".26458">
    <circle cx="49.969" cy="107.74" r=".067896" opacity=".5"/>
    <circle cx="53.792" cy="108" r=".067896" opacity=".5"/>
    <circle cx="53.41" cy="104.43" r=".067896" opacity=".5"/>
    <circle cx="57.233" cy="107.1" r=".067896" opacity=".5"/>
    <circle cx="59.399" cy="110.03" r=".067896" opacity=".5"/>
    <circle cx="58.507" cy="112.2" r=".067896" opacity=".5"/>
    <circle cx="60.164" cy="106.59" r=".067896" opacity=".5"/>
    <circle cx="63.477" cy="106.98" r=".067896" opacity=".5"/>
    <circle cx="65.261" cy="110.16" r=".067896" opacity=".5"/>
    <circle cx="66.79" cy="107.74" r=".067896" opacity=".5"/>
    <circle cx="66.535" cy="104.04" r=".067896" opacity=".5"/>
    <circle cx="68.319" cy="101.24" r=".067896" opacity=".5"/>
    <circle cx="68.702" cy="105.96" r=".067896" opacity=".5"/>
    <circle cx="70.613" cy="108.25" r=".067896" opacity=".5"/>
    <circle cx="72.015" cy="106.34" r=".067896" opacity=".5"/>
    <circle cx="72.525" cy="102.9" r=".067896" opacity=".5"/>
    <circle cx="74.818" cy="103.66" r=".067896" opacity=".5"/>
    <circle cx="47.548" cy="112.07" r=".067896" opacity=".5"/>
    <circle cx="56.656" cy="112.13" r=".067896" opacity=".5"/>
    <circle cx="60.08" cy="111.94" r=".067896" opacity=".5"/>
    <circle cx="69.361" cy="113.21" r=".067896" opacity=".5"/>
    <circle cx="46.018" cy="114.37" r=".067896" opacity=".5"/>
    <circle cx="48.93" cy="112.93" r=".067896" opacity=".5"/>
    <circle cx="52.263" cy="113.73" r=".067896" opacity=".5"/>
    <circle cx="54.39" cy="113.22" r=".067896" opacity=".5"/>
    <circle cx="46.018" cy="116.02" r=".067896" opacity=".5"/>
    <circle cx="84.376" cy="117.43" r=".067896" opacity=".5"/>
    <circle cx="81.445" cy="116.28" r=".067896" opacity=".5"/>
    <circle cx="63.095" cy="111.82" r=".067896" opacity=".5"/>
    <circle cx="65.006" cy="113.47" r=".067896" opacity=".5"/>
    <circle cx="68.064" cy="112.96" r=".067896" opacity=".5"/>
    <circle cx="70.103" cy="111.18" r=".067896" opacity=".5"/>
    <circle cx="72.27" cy="112.46" r=".067896" opacity=".5"/>
    <circle cx="78.514" cy="112.58" r=".067896" opacity=".5"/>
    <circle cx="82.719" cy="112.96" r=".067896" opacity=".5"/>
    <circle cx="80.171" cy="108" r=".067896" opacity=".5"/>
    <circle cx="77.749" cy="105.7" r=".067896" opacity=".5"/>
    <circle cx="75.583" cy="108.5" r=".067896" opacity=".5"/>
    <circle cx="61.82" cy="101.5" r=".067896" opacity=".5"/>
    <circle cx="57.615" cy="102.52" r=".067896" opacity=".5"/>
    <circle cx="64.624" cy="102.26" r=".067896" opacity=".5"/>
    <circle cx="75.714" cy="105.5" r=".067896" opacity=".5"/>
    <circle cx="76.84" cy="106.94" r=".067896" opacity=".5"/>
    <circle cx="71.659" cy="105.01" r=".067896" opacity=".5"/>
    <circle cx="79.994" cy="111.49" r=".067896" opacity=".5"/>
    <circle cx="78.057" cy="109.56" r=".067896" opacity=".5"/>
    <circle cx="75.624" cy="111.22" r=".067896" opacity=".5"/>
    <circle cx="73.461" cy="108.75" r=".067896" opacity=".5"/>
    <circle cx="70.938" cy="109.69" r=".067896" opacity=".5"/>
    <circle cx="73.551" cy="111.81" r=".067896" opacity=".5"/>
    <circle cx="52.511" cy="110.05" r=".067896" opacity=".5"/>
    <circle cx="58.503" cy="107.84" r=".067896" opacity=".5"/>
    <circle cx="56.205" cy="104.83" r=".067896" opacity=".5"/>
    <circle cx="47.675" cy="115.39" r=".067896" opacity=".5"/>
    <circle cx="76.348" cy="114.11" r=".067896" opacity=".5"/>
    <circle cx="79.788" cy="115.39" r=".067896" opacity=".5"/>
    <circle cx="64.751" cy="114.75" r=".067896" opacity=".5"/>
   </g>
  </g>
 </g>
</svg>
