<?xml version="1.0" encoding="UTF-8" standalone="no"?>
<!-- Created with Inkscape (http://www.inkscape.org/) -->

<svg
   width="17.149078mm"
   height="39.824581mm"
   viewBox="0 0 17.149077 39.82458"
   version="1.1"
   id="svg96236"
   inkscape:version="1.1.1 (3bf5ae0d25, 2021-09-20)"
   sodipodi:docname="Human0.svg"
   xmlns:inkscape="http://www.inkscape.org/namespaces/inkscape"
   xmlns:sodipodi="http://sodipodi.sourceforge.net/DTD/sodipodi-0.dtd"
   xmlns="http://www.w3.org/2000/svg"
   xmlns:svg="http://www.w3.org/2000/svg">
  <sodipodi:namedview
     id="namedview96238"
     pagecolor="#ffffff"
     bordercolor="#666666"
     borderopacity="1.0"
     inkscape:pageshadow="2"
     inkscape:pageopacity="0.0"
     inkscape:pagecheckerboard="0"
     inkscape:document-units="mm"
     showgrid="false"
     inkscape:zoom="2.5620932"
     inkscape:cx="-10.928564"
     inkscape:cy="88.59943"
     inkscape:window-width="1920"
     inkscape:window-height="1010"
     inkscape:window-x="-6"
     inkscape:window-y="-6"
     inkscape:window-maximized="1"
     inkscape:current-layer="layer1" />
  <defs
     id="defs96233" />
  <g
     inkscape:label="Warstwa 1"
     inkscape:groupmode="layer"
     id="layer1"
     transform="translate(-62.060064,-56.46317)">
    <path
       style="fill:#ffd1a5;fill-opacity:1;stroke:#000000;stroke-width:1.05833;stroke-linecap:round;stroke-linejoin:round;stroke-miterlimit:4;stroke-dasharray:none;stroke-opacity:1"
       d="m 64.070766,56.992335 c 1.117415,2.123735 1.23955,30.722188 1.183013,34.267764 -2.01616,-0.48658 -3.541454,1.237284 -2.094249,4.0019 0.83559,1.25337 7.309361,-0.262025 7.309361,-0.262025 1.907707,-0.356128 2.403735,0.303315 3.14997,-0.385274 1.991088,-1.837281 1.932603,-5.554387 2.278147,-7.006844 1.64117,-6.898509 2.832967,-21.870602 2.78133,-30.615521"
       id="path66294-2"
       sodipodi:nodetypes="ccccscc" />
    <path
       style="fill:none;stroke:#000000;stroke-width:1.05833;stroke-linecap:round;stroke-linejoin:round;stroke-miterlimit:4;stroke-dasharray:none;stroke-opacity:1"
       d="m 71.40781,58.171515 c 1.14419,0.54591 0.98308,0.3793 0.80038,1.84088"
       id="path81753-1-4-4" />
    <path
       style="fill:none;stroke:#000000;stroke-width:1.05833;stroke-linecap:round;stroke-linejoin:round;stroke-miterlimit:4;stroke-dasharray:none;stroke-opacity:1"
       d="m 66.534389,77.284562 c 0.794179,0.51579 1.297489,1.45757 1.760829,1.92091"
       id="path81739-7" />
    <path
       style="fill:none;stroke:#000000;stroke-width:1.05833;stroke-linecap:round;stroke-linejoin:round;stroke-miterlimit:4;stroke-dasharray:none;stroke-opacity:1"
       d="m 66.054159,79.365542 c 0.897979,1.20659 -0.81064,2.16103 -1.92091,2.16103"
       id="path81741-3" />
    <path
       style="fill:none;stroke:#000000;stroke-width:1.05833;stroke-linecap:round;stroke-linejoin:round;stroke-miterlimit:4;stroke-dasharray:none;stroke-opacity:1"
       d="m 75.61053,71.844726 c -0.897979,1.20659 0.81064,2.16103 1.92091,2.16103"
       id="path81741-3-7" />
    <path
       style="fill:none;stroke:#000000;stroke-width:1.05833;stroke-linecap:round;stroke-linejoin:round;stroke-miterlimit:4;stroke-dasharray:none;stroke-opacity:1"
       d="m 73.440522,76.009739 c 0.003,-1.39315 -1.20558,-2.793799 -0.24011,-4.242009"
       id="path81743-3" />
    <path
       style="fill:none;stroke:#000000;stroke-width:1.05833;stroke-linecap:round;stroke-linejoin:round;stroke-miterlimit:4;stroke-dasharray:none;stroke-opacity:1"
       d="m 76.205719,80.134829 c 0.031,0.80112 -0.46472,1.26199 -0.88042,1.76083"
       id="path81745-6" />
    <path
       style="fill:none;stroke:#000000;stroke-width:1.05833;stroke-linecap:round;stroke-linejoin:round;stroke-miterlimit:4;stroke-dasharray:none;stroke-opacity:1"
       d="m 69.581577,62.514035 c -0.031,0.80112 0.46472,1.26199 0.88042,1.76083"
       id="path81745-6-6" />
    <path
       style="fill:none;stroke:#000000;stroke-width:1.05833;stroke-linecap:round;stroke-linejoin:round;stroke-miterlimit:4;stroke-dasharray:none;stroke-opacity:1"
       d="m 71.976968,81.446532 c 0.7005,0.47744 2.24669,1.70143 1.76083,-0.08"
       id="path81747-6" />
    <path
       style="fill:none;stroke:#000000;stroke-width:1.05833;stroke-linecap:round;stroke-linejoin:round;stroke-miterlimit:4;stroke-dasharray:none;stroke-opacity:1"
       d="m 63.728945,64.503094 c 1.34132,-0.13336 2.61714,-0.14299 3.60171,0.56027"
       id="path81749-2-0" />
    <path
       style="fill:none;stroke:#000000;stroke-width:1.05833;stroke-linecap:round;stroke-linejoin:round;stroke-miterlimit:4;stroke-dasharray:none;stroke-opacity:1"
       d="m 77.450641,77.604712 c -0.47695,0.42113 -1.04449,0.68232 -1.60076,0.96046"
       id="path81751-1" />
    <path
       style="fill:none;stroke:#000000;stroke-width:1.05833;stroke-linecap:round;stroke-linejoin:round;stroke-miterlimit:4;stroke-dasharray:none;stroke-opacity:1"
       d="m 75.049501,76.724292 c 1.14419,0.54591 0.98308,0.3793 0.80038,1.84088"
       id="path81753-1" />
    <path
       style="fill:none;stroke:#000000;stroke-width:1.05833;stroke-linecap:round;stroke-linejoin:round;stroke-miterlimit:4;stroke-dasharray:none;stroke-opacity:1"
       d="m 64.926884,57.181375 c 1.14419,0.54591 0.98308,0.3793 0.80038,1.84088"
       id="path81753-1-9" />
    <path
       style="fill:none;stroke:#000000;stroke-width:1.05833;stroke-linecap:round;stroke-linejoin:round;stroke-miterlimit:4;stroke-dasharray:none;stroke-opacity:1"
       d="m 70.969679,67.423406 c 1.14419,0.54591 0.98308,0.3793 0.80038,1.84088"
       id="path81753-1-4" />
    <path
       style="fill:none;stroke:#000000;stroke-width:1.05833;stroke-linecap:round;stroke-linejoin:round;stroke-miterlimit:4;stroke-dasharray:none;stroke-opacity:1"
       d="m 70.075894,69.449038 c -1.14419,0.54591 -0.98308,0.3793 -0.80038,1.84088"
       id="path81753-1-1" />
    <path
       style="fill:none;stroke:#000000;stroke-width:1.05833;stroke-linecap:round;stroke-linejoin:round;stroke-miterlimit:4;stroke-dasharray:none;stroke-opacity:1"
       d="m 63.741485,60.832465 c 1.14419,0.54591 0.98308,0.3793 0.800381,1.84088"
       id="path81753-1-1-4" />
    <path
       style="fill:none;stroke:#000000;stroke-width:1.05833;stroke-linecap:round;stroke-linejoin:round;stroke-miterlimit:4;stroke-dasharray:none;stroke-opacity:1"
       d="m 66.089809,75.314712 c -0.33214,1.11864 -1.18171,2.42547 -1.92087,3.04144"
       id="path81757-8" />
    <path
       style="fill:none;stroke:#000000;stroke-width:1.05833;stroke-linecap:round;stroke-linejoin:round;stroke-miterlimit:4;stroke-dasharray:none;stroke-opacity:1"
       d="m 63.092759,87.209262 c 1.3212,-1.33008 4.026839,-1.69654 4.081929,-1.6808"
       id="path81763-9" />
    <path
       style="fill:none;stroke:#000000;stroke-width:1.05833;stroke-linecap:round;stroke-linejoin:round;stroke-miterlimit:4;stroke-dasharray:none;stroke-opacity:1"
       d="m 66.534389,83.767632 c -0.33174,0.19577 -0.59282,0.47382 -0.88042,0.72034"
       id="path81765-7" />
    <path
       style="fill:none;stroke:#000000;stroke-width:1.05833;stroke-linecap:round;stroke-linejoin:round;stroke-miterlimit:4;stroke-dasharray:none;stroke-opacity:1"
       d="m 68.453716,58.002531 c -0.33174,0.19577 -0.59282,0.47382 -0.88042,0.72034"
       id="path81765-7-5-4" />
    <path
       style="fill:none;stroke:#000000;stroke-width:1.05833;stroke-linecap:round;stroke-linejoin:round;stroke-miterlimit:4;stroke-dasharray:none;stroke-opacity:1"
       d="m 75.243779,69.352112 c -0.33174,0.19577 -0.59282,0.47382 -0.88042,0.72034"
       id="path81765-7-5-5" />
    <path
       style="fill:none;stroke:#000000;stroke-width:1.05833;stroke-linecap:round;stroke-linejoin:round;stroke-miterlimit:4;stroke-dasharray:none;stroke-opacity:1"
       d="m 69.175638,84.327902 c 1.78301,0.97922 2.93918,-1.36065 3.52167,-1.36065 0.30195,0 3.44316,2.80286 3.84182,3.20152"
       id="path81767-9" />
    <path
       style="fill:none;stroke:#000000;stroke-width:1.05833;stroke-linecap:round;stroke-linejoin:round;stroke-miterlimit:4;stroke-dasharray:none;stroke-opacity:1"
       d="m 76.859278,83.687592 c -0.55904,0.59348 -1.13959,1.16309 -1.76083,1.6808"
       id="path81769-1" />
    <path
       style="fill:none;stroke:#000000;stroke-width:1.05833;stroke-linecap:round;stroke-linejoin:round;stroke-miterlimit:4;stroke-dasharray:none;stroke-opacity:1"
       d="m 73.417648,86.168772 c 1.17825,-0.13959 1.74898,0.65809 2.40114,1.44068"
       id="path81773-0" />
    <path
       style="fill:none;stroke:#000000;stroke-width:1.05833;stroke-linecap:round;stroke-linejoin:round;stroke-miterlimit:4;stroke-dasharray:none;stroke-opacity:1"
       d="m 73.017458,88.729982 c 1.02469,0.1343 1.70899,1.18404 2.40114,1.76084"
       id="path81775-2" />
    <path
       style="fill:none;stroke:#000000;stroke-width:1.05833;stroke-linecap:round;stroke-linejoin:round;stroke-miterlimit:4;stroke-dasharray:none;stroke-opacity:1"
       d="m 69.815938,88.489872 c 0.60941,0.89291 0.9467,1.51728 1.92091,1.76083"
       id="path81777-9" />
    <path
       style="fill:none;stroke:#000000;stroke-width:1.05833;stroke-linecap:round;stroke-linejoin:round;stroke-miterlimit:4;stroke-dasharray:none;stroke-opacity:1"
       d="m 63.912149,68.174671 c 0.60941,0.89291 0.9467,1.51728 1.92091,1.76083"
       id="path81777-9-2" />
    <path
       style="fill:none;stroke:#000000;stroke-width:1.05833;stroke-linecap:round;stroke-linejoin:round;stroke-miterlimit:4;stroke-dasharray:none;stroke-opacity:1"
       d="m 70.615505,73.761321 c -0.60941,0.89291 -0.9467,1.51728 -1.92091,1.76083"
       id="path81777-9-0" />
    <path
       style="fill:none;stroke:#000000;stroke-width:1.05833;stroke-linecap:round;stroke-linejoin:round;stroke-miterlimit:4;stroke-dasharray:none;stroke-opacity:1"
       d="m 68.135148,91.131122 c -0.79969,2.35237 -2.278959,3.22678 0.6403,1.28061"
       id="path81779-6" />
    <path
       style="fill:none;stroke:#000000;stroke-width:1.05833;stroke-linecap:round;stroke-linejoin:round;stroke-miterlimit:4;stroke-dasharray:none;stroke-opacity:1"
       d="m 67.071829,60.358265 c -0.79969,2.35237 -2.278959,3.22678 0.6403,1.28061"
       id="path81779-6-9" />
    <path
       style="fill:none;stroke:#000000;stroke-width:1.05833;stroke-linecap:round;stroke-linejoin:round;stroke-miterlimit:4;stroke-dasharray:none;stroke-opacity:1"
       d="m 73.460754,67.309789 c -0.79969,-2.35237 -2.278959,-3.22678 0.6403,-1.28061"
       id="path81779-6-9-0" />
    <path
       style="fill:none;stroke:#000000;stroke-width:1.05833;stroke-linecap:round;stroke-linejoin:round;stroke-miterlimit:4;stroke-dasharray:none;stroke-opacity:1"
       d="m 73.360936,92.182283 c -0.66173,-1.06109 -0.801618,-0.436975 -1.864198,-0.588775"
       id="path81781-7"
       sodipodi:nodetypes="cc" />
    <path
       style="fill:none;stroke:#000000;stroke-width:1.05833;stroke-linecap:round;stroke-linejoin:round;stroke-miterlimit:4;stroke-dasharray:none;stroke-opacity:1"
       d="m 69.674859,82.370678 c -0.66173,-1.06109 -0.801618,-0.436975 -1.864198,-0.588775"
       id="path81781-7-7"
       sodipodi:nodetypes="cc" />
    <path
       style="fill:none;stroke:#000000;stroke-width:1.05833;stroke-linecap:round;stroke-linejoin:round;stroke-miterlimit:4;stroke-dasharray:none;stroke-opacity:1"
       d="m 65.173739,95.133022 c -1.0366,-1.00403 -0.13167,-2.10673 0,0"
       id="path81785-1" />
    <path
       style="fill:none;stroke:#000000;stroke-width:1.05833;stroke-linecap:round;stroke-linejoin:round;stroke-miterlimit:4;stroke-dasharray:none;stroke-opacity:1"
       d="m 67.321197,73.744285 c -1.0366,-1.00403 -0.13167,-2.10673 0,0"
       id="path81785-1-2" />
    <path
       style="fill:none;stroke:#000000;stroke-width:1.05833;stroke-linecap:round;stroke-linejoin:round;stroke-miterlimit:4;stroke-dasharray:none;stroke-opacity:1"
       d="m 70.570185,61.110549 c -1.0366,-1.00403 -0.13167,-2.10673 0,0"
       id="path81785-1-2-6" />
    <path
       style="fill:none;stroke:#000000;stroke-width:1.05833;stroke-linecap:round;stroke-linejoin:round;stroke-miterlimit:4;stroke-dasharray:none;stroke-opacity:1"
       d="m 62.692569,89.930552 c 0.88543,0.1159 2.56121,1.93487 2.56121,0.80038"
       id="path81787-3" />
    <path
       style="fill:none;stroke:#000000;stroke-width:1.05833;stroke-linecap:round;stroke-linejoin:round;stroke-miterlimit:4;stroke-dasharray:none;stroke-opacity:1"
       d="m 64.457999,88.569902 c 1.21257,0.14419 2.15037,0.16541 3.121479,-0.32015"
       id="path81791-8" />
    <path
       style="fill:none;stroke:#000000;stroke-width:1.05833;stroke-linecap:round;stroke-linejoin:round;stroke-miterlimit:4;stroke-dasharray:none;stroke-opacity:1"
       d="m 70.576298,78.485132 c 0.96322,-0.29318 1.97103,-0.25454 2.5212,-1.0405"
       id="path81793-0" />
    <path
       style="fill:none;stroke:#000000;stroke-width:1.05833;stroke-linecap:round;stroke-linejoin:round;stroke-miterlimit:4;stroke-dasharray:none;stroke-opacity:1"
       d="m 76.105457,67.648412 c 0.28318,0.42992 0.71797,0.67291 1.12053,0.96045"
       id="path81795-3" />
    <path
       style="fill:none;stroke:#000000;stroke-width:1.05833;stroke-linecap:round;stroke-linejoin:round;stroke-miterlimit:4;stroke-dasharray:none;stroke-opacity:1"
       d="m 65.974119,93.252122 c 0.40572,0.0233 0.7572,0.12006 1.160549,0.12006"
       id="path81797-4" />
    <path
       style="fill:none;stroke:#000000;stroke-width:1.05833;stroke-linecap:round;stroke-linejoin:round;stroke-miterlimit:4;stroke-dasharray:none;stroke-opacity:1"
       d="m 68.662895,68.515921 c -0.60941,-0.89291 -0.9467,-1.51728 -1.92091,-1.76083"
       id="path81777-9-0-1" />
  </g>
</svg>
