<?xml version="1.0" encoding="UTF-8" standalone="no"?>
<!-- Created with Inkscape (http://www.inkscape.org/) -->

<svg
   width="19.780725mm"
   height="37.085777mm"
   viewBox="0 0 19.780725 37.085777"
   version="1.1"
   id="svg131179"
   inkscape:version="1.1.1 (3bf5ae0d25, 2021-09-20)"
   sodipodi:docname="Human1.svg"
   xmlns:inkscape="http://www.inkscape.org/namespaces/inkscape"
   xmlns:sodipodi="http://sodipodi.sourceforge.net/DTD/sodipodi-0.dtd"
   xmlns="http://www.w3.org/2000/svg"
   xmlns:svg="http://www.w3.org/2000/svg">
  <sodipodi:namedview
     id="namedview131181"
     pagecolor="#ffffff"
     bordercolor="#666666"
     borderopacity="1.0"
     inkscape:pageshadow="2"
     inkscape:pageopacity="0.0"
     inkscape:pagecheckerboard="0"
     inkscape:document-units="mm"
     showgrid="false"
     inkscape:zoom="3.623347"
     inkscape:cx="36.982382"
     inkscape:cy="109.01523"
     inkscape:window-width="1920"
     inkscape:window-height="1010"
     inkscape:window-x="-6"
     inkscape:window-y="-6"
     inkscape:window-maximized="1"
     inkscape:current-layer="layer1" />
  <defs
     id="defs131176" />
  <g
     inkscape:label="Warstwa 1"
     inkscape:groupmode="layer"
     id="layer1"
     transform="translate(-122.75432,-113.90613)">
    <g
       inkscape:label="Warstwa 1"
       id="layer1-6"
       transform="matrix(-0.90824838,0,0,1.0597698,160.0446,15.002359)"
       style="stroke-width:1.07873;stroke-miterlimit:4;stroke-dasharray:none">
      <path
         style="fill:#ffd1a5;fill-opacity:1;stroke:#1b0000;stroke-width:1.07873;stroke-linecap:round;stroke-linejoin:round;stroke-miterlimit:4;stroke-dasharray:none;stroke-opacity:1;paint-order:normal"
         d="m 19.99211,99.292898 c -0.8959,-2.58012 1.36194,-3.74442 2.99891,-4.49748 3.29145,-1.51419 8.27798,-1.30522 10.79048,1.3051 0.79842,0.82951 0.795294,2.241076 0.28352,3.44233 2.160191,1.274342 3.674013,5.067912 4.025153,7.124222 0.48891,2.86291 -0.427033,8.60684 -0.459613,11.64836 -0.007,0.64183 -0.3527,1.71935 -0.17312,2.27799 0.19232,0.5982 0.476,1.10028 0.79848,1.60243 0.55428,0.86309 1.55798,1.43932 1.93366,2.39379 0.26606,0.67595 0.53828,1.94423 0.15349,2.17386 -2.62156,1.56441 -4.490042,1.15663 -6.455323,0.27558 -1.725067,-0.77335 -3.406087,-3.82145 -3.589247,-4.39121 -0.38563,-1.19956 -1.12162,-3.23455 -2.84732,-5.81577 -1.28101,-1.91609 -1.98011,-3.3268 -2.90208,-4.58392 -0.52358,-0.71393 -1.27114,-2.57475 -1.46077,-3.97295 -0.14149,-1.04325 0.0704,-2.33141 0.261,-3.14761"
         id="path114411"
         sodipodi:nodetypes="cccccccsscacccsc" />
      <path
         style="fill:#ffb669;fill-opacity:1;stroke:#1b0000;stroke-width:1.07873;stroke-linecap:round;stroke-linejoin:round;stroke-miterlimit:4;stroke-dasharray:none;stroke-opacity:1"
         d="m 26.26415,106.0014 c 0.57962,1.70978 0.68927,3.50973 1.53217,5.02218"
         id="path117371"
         sodipodi:nodetypes="cc" />
      <path
         style="fill:#ffb669;fill-opacity:1;stroke:#1b0000;stroke-width:1.07873;stroke-linecap:round;stroke-linejoin:round;stroke-miterlimit:4;stroke-dasharray:none;stroke-opacity:1"
         d="m 27.09429,98.410368 c 0.21882,0.18279 0.35138,0.66963 -0.0772,0.66504 -0.27109,-0.003 -0.64985,-0.66411 -0.94013,-0.57077 -0.33129,0.10651 -0.83122,0.63024 -1.19629,0.44278 -0.36098,-0.18535 0.0592,-1.00986 0.5275,-0.16958"
         id="path117465"
         sodipodi:nodetypes="ccssc" />
    </g>
  </g>
</svg>
