<svg width="248.57" height="310.86" version="1.1" viewBox="0 0 65.767 82.247" xmlns="http://www.w3.org/2000/svg">
 <g transform="translate(-381.09 -495.47)">
  <path d="m386.07 545.77c-0.48379 3.537 5.4284 3.2494 7.483 2.9436 1.4006-0.20839 4.6975-0.74928 3.2892-0.89747-3.5003-0.36831-4.5836 6.0456-5.3556 7.2042-1.0207 1.5318-10.448 16.746-9.8333 17.236 1.6512 1.3167 5.5198-0.53416 10.937-1.3797 6.2416-0.97419 12.541-0.10283 12.541-0.10283 1.381-1.4452-2.8043 0.87673-3.2869 2.8962-0.48257 2.0195 1.1366 2.681 2.6218 3.3054 3.8386 1.6138 7.6436-6.4088 6.8729-6.4223-0.0541-1e-3 -0.13299 3.9999 1.3118 4.9484 1.4637 0.96096 4.6412 1.7547 5.9037 0.22618 3.2899-3.9832-3.602-8.6845-0.48734-5.707 2.694 2.5754 12.043 0.41265 15.574 0.12151 0.66554-0.0549 7.6642-1.0266 12.495 1.7338 0.99636 0.75526-2.1155-6.3315-2.5098-6.932-1.7934-2.7317-2.2816-5.9378-3.2905-9.0843-0.29353-0.91551-1.4548-3.5595-2.5629-5.8407-0.84833-1.7464-2.8513-7.2354-1.4306-3.804 0.37798 0.91296 1.6092 2.2445 3.7118 2.1444 1.8821-0.0896 4.6643-1.45 4.8682-3.2712-0.48603-1.2205-1.5939-2.1697-3.2696-2.4634-1.6242-0.28467-5.3288 0.75649-4.7373 0.0418 0.0883-1.6736-0.82461-6.3361-0.19686-14.693 0.30145-4.0128 1.4976-9.4218 0.364-13.924-1.3305-5.2846-3.7092-10.985-8.1149-14.192-4.7941-3.4901-11.514-4.3007-17.409-3.6592-3.5199 0.38305-7.0729 1.9757-9.6816 4.3696-4.1439 3.8027-6.6415 9.3334-8.2337 14.728-1.1341 3.8422-1.0196 8.7857-0.77191 11.994 0.48218 6.2438-0.0348 11.374-0.2873 15.184 0 0-5.8772-1.3574-6.5138 3.2968z" fill="#ffd1a5" stroke="#000" stroke-linecap="round" stroke-linejoin="round" stroke-width="1.0583"/>
  <ellipse cx="391.27" cy="545.33" rx=".65107" ry=".6742" fill="#050100"/>
  <path d="m438.38 544.57c0.63738 0.36101 1.3442-0.0126 1.9703 0.31421 0.0763 0.0398 0.0428 3.2251-1.2445 0.61778-0.23986-0.4858-0.92661-0.27284-0.72576-0.93199z" fill="#000100"/>
 </g>
</svg>
