<?xml version="1.0" encoding="UTF-8" standalone="no"?>
<!-- Created with Inkscape (http://www.inkscape.org/) -->

<svg
   width="33.920876mm"
   height="11.303753mm"
   viewBox="0 0 33.920875 11.303753"
   version="1.1"
   id="svg96236"
   inkscape:version="1.1.1 (3bf5ae0d25, 2021-09-20)"
   sodipodi:docname="Human.svg"
   xmlns:inkscape="http://www.inkscape.org/namespaces/inkscape"
   xmlns:sodipodi="http://sodipodi.sourceforge.net/DTD/sodipodi-0.dtd"
   xmlns="http://www.w3.org/2000/svg"
   xmlns:svg="http://www.w3.org/2000/svg">
  <sodipodi:namedview
     id="namedview96238"
     pagecolor="#ffffff"
     bordercolor="#666666"
     borderopacity="1.0"
     inkscape:pageshadow="2"
     inkscape:pageopacity="0.0"
     inkscape:pagecheckerboard="0"
     inkscape:document-units="mm"
     showgrid="false"
     inkscape:zoom="1.8116735"
     inkscape:cx="189.87969"
     inkscape:cy="-111.49912"
     inkscape:window-width="1920"
     inkscape:window-height="1010"
     inkscape:window-x="-6"
     inkscape:window-y="-6"
     inkscape:window-maximized="1"
     inkscape:current-layer="layer1" />
  <defs
     id="defs96233" />
  <g
     inkscape:label="Warstwa 1"
     inkscape:groupmode="layer"
     id="layer1"
     transform="translate(-42.972255,-112.40752)">
    <path
       id="path6276"
       style="fill:#ffd1a5;fill-opacity:1;stroke:#000000;stroke-width:1.05833;stroke-linecap:round;stroke-linejoin:round;stroke-miterlimit:4;stroke-dasharray:none;stroke-opacity:1"
       d="m 66.709859,115.25004 c -0.005,0.60527 0.852789,2.6819 2.597109,3.05204 0.38441,0.0816 3.46565,-0.9393 0.87171,-4.41779 m -3.468819,1.36575 c -2.80609,0.70102 -9.61042,2.12637 -12.61402,3.54362 -0.77067,0.36364 -1.17371,-2.77878 -2.28893,-2.63884 -1.40632,0.17648 -0.3393,2.34422 -0.65448,3.33482 -0.54979,-0.64381 -0.98621,-4.31369 -2.59867,-4.16542 -0.84787,0.078 -0.22313,2.65317 0.52946,4.83058 -2.11282,-5.49728 -2.75219,-5.19686 -4.64756,-3.60923 -2.223355,1.86235 -0.0373,4.44704 1.97628,5.62542 1.01051,0.59137 1.27511,0.73259 1.98045,0.90195 0.6576,0.15789 1.35065,0.0951 2.02691,0.0891 7.26334,-0.0646 14.1437,-0.59904 21.749389,-1.34426 4.7382,-0.46425 4.07338,-3.30591 4.19525,-3.30591 0.0129,-6.16958 -4.82032,-3.80146 -4.82032,-5.57518" />
  </g>
</svg>
