<?xml version="1.0" encoding="UTF-8" standalone="no"?>
<!-- Created with Inkscape (http://www.inkscape.org/) -->

<svg
   width="11.981998mm"
   height="24.726776mm"
   viewBox="0 0 11.981999 24.726776"
   version="1.1"
   id="svg96236"
   inkscape:version="1.1.1 (3bf5ae0d25, 2021-09-20)"
   sodipodi:docname="Human0.svg"
   xmlns:inkscape="http://www.inkscape.org/namespaces/inkscape"
   xmlns:sodipodi="http://sodipodi.sourceforge.net/DTD/sodipodi-0.dtd"
   xmlns="http://www.w3.org/2000/svg"
   xmlns:svg="http://www.w3.org/2000/svg">
  <sodipodi:namedview
     id="namedview96238"
     pagecolor="#ffffff"
     bordercolor="#666666"
     borderopacity="1.0"
     inkscape:pageshadow="2"
     inkscape:pageopacity="0.0"
     inkscape:pagecheckerboard="0"
     inkscape:document-units="mm"
     showgrid="false"
     inkscape:zoom="5.1241865"
     inkscape:cx="19.905599"
     inkscape:cy="78.451477"
     inkscape:window-width="1920"
     inkscape:window-height="1010"
     inkscape:window-x="-6"
     inkscape:window-y="-6"
     inkscape:window-maximized="1"
     inkscape:current-layer="layer1" />
  <defs
     id="defs96233" />
  <g
     inkscape:label="Warstwa 1"
     inkscape:groupmode="layer"
     id="layer1"
     transform="translate(-63.133104,-93.550085)">
    <path
       style="fill:#ffd1a5;fill-opacity:1;stroke:#000000;stroke-width:1.05833;stroke-linecap:round;stroke-linejoin:round;stroke-miterlimit:4;stroke-dasharray:none;stroke-opacity:1"
       d="m 65.702906,94.603852 c 0,0 -0.326877,2.943407 -0.369087,5.731638 -0.0165,1.08934 1.736546,10.63432 1.18115,14.57161 -0.555396,3.93729 4.844889,3.14917 5.424079,1.4116 0.492389,-1.47717 -0.638351,-1.94666 -0.39543,-4.44035 0.242921,-2.49369 1.23372,-6.56419 1.23372,-10.10215 0,-2.968621 0.776199,-5.632238 1.808599,-7.69695"
       id="path6579"
       sodipodi:nodetypes="cczszcc" />
    <path
       style="fill:none;stroke:#000000;stroke-width:1.05833;stroke-linecap:round;stroke-linejoin:round;stroke-miterlimit:4;stroke-dasharray:none;stroke-opacity:1"
       d="m 71.576778,95.213062 c 1.768,0.3289 1.99227,2.13554 2.72129,0.24011"
       id="path81783-9"
       sodipodi:nodetypes="cc" />
    <path
       style="fill:none;stroke:#000000;stroke-width:1.05833;stroke-linecap:round;stroke-linejoin:round;stroke-miterlimit:4;stroke-dasharray:none;stroke-opacity:1"
       d="m 67.095636,96.474837 c 0.87998,-0.0375 1.89461,-1.2625 2.64125,-0.6403"
       id="path81799-6"
       sodipodi:nodetypes="cc" />
    <path
       style="fill:none;stroke:#000000;stroke-width:1.05833;stroke-linecap:round;stroke-linejoin:round;stroke-miterlimit:4;stroke-dasharray:none;stroke-opacity:1"
       d="m 71.136568,98.045482 c 0.79413,0.53548 1.18823,1.40104 2.04097,1.720808"
       id="path81801-4"
       sodipodi:nodetypes="cc" />
    <path
       style="fill:none;stroke:#000000;stroke-width:1.05833;stroke-linecap:round;stroke-linejoin:round;stroke-miterlimit:4;stroke-dasharray:none;stroke-opacity:1"
       d="m 65.360129,98.379252 c -0.57171,0.43239 -1.16536,0.8901 -1.69786,1.245098"
       id="path81803-2"
       sodipodi:nodetypes="cc" />
    <path
       style="fill:none;stroke:#000000;stroke-width:1.05833;stroke-linecap:round;stroke-linejoin:round;stroke-miterlimit:4;stroke-dasharray:none;stroke-opacity:1"
       d="m 67.114578,101.66178 c -0.464659,0.40078 -0.867789,0.8678 -1.301689,1.3017"
       id="path81805-2"
       sodipodi:nodetypes="cc" />
    <path
       style="fill:none;stroke:#000000;stroke-width:1.05833;stroke-linecap:round;stroke-linejoin:round;stroke-miterlimit:4;stroke-dasharray:none;stroke-opacity:1"
       d="m 68.869038,100.64307 c 0.47117,1.50775 0.068,0.38727 0.50936,1.35829 0.71418,1.5712 0.71071,-0.28298 1.58467,-0.28298"
       id="path81807-0"
       sodipodi:nodetypes="ccc" />
    <path
       style="fill:none;stroke:#000000;stroke-width:1.05833;stroke-linecap:round;stroke-linejoin:round;stroke-miterlimit:4;stroke-dasharray:none;stroke-opacity:1"
       d="m 71.246048,103.41624 c 0.77626,-0.48547 1.45668,-0.83873 2.32041,-0.96212"
       id="path81809-5"
       sodipodi:nodetypes="cc" />
    <path
       style="fill:none;stroke:#000000;stroke-width:1.05833;stroke-linecap:round;stroke-linejoin:round;stroke-miterlimit:4;stroke-dasharray:none;stroke-opacity:1"
       d="m 68.020108,104.83112 c 0.6208,0.0971 0.94022,0.53311 1.1885,0.90553"
       id="path81811-5"
       sodipodi:nodetypes="cc" />
    <path
       style="fill:none;stroke:#000000;stroke-width:1.05833;stroke-linecap:round;stroke-linejoin:round;stroke-miterlimit:4;stroke-dasharray:none;stroke-opacity:1"
       d="m 69.831158,107.20813 c 0.7804,0.30248 0.95989,0.7731 1.75446,0.90552"
       id="path81813-9"
       sodipodi:nodetypes="cc" />
    <path
       style="fill:none;stroke:#000000;stroke-width:1.05833;stroke-linecap:round;stroke-linejoin:round;stroke-miterlimit:4;stroke-dasharray:none;stroke-opacity:1"
       d="m 71.359238,106.01963 c 0.41871,-0.0763 0.86441,-0.0926 1.24509,-0.28298"
       id="path81815-4"
       sodipodi:nodetypes="cc" />
    <path
       style="fill:none;stroke:#000000;stroke-width:1.05833;stroke-linecap:round;stroke-linejoin:round;stroke-miterlimit:4;stroke-dasharray:none;stroke-opacity:1"
       d="m 67.510748,107.71749 c 0.0305,0.59843 -0.19207,1.40199 -0.28297,1.81105"
       id="path81817-3"
       sodipodi:nodetypes="cc" />
    <path
       style="fill:none;stroke:#000000;stroke-width:1.05833;stroke-linecap:round;stroke-linejoin:round;stroke-miterlimit:4;stroke-dasharray:none;stroke-opacity:1"
       d="m 68.812438,110.15109 c -0.06,-1.7544 1.39205,-0.0986 1.64127,-0.16979"
       id="path81819-6"
       sodipodi:nodetypes="cc" />
    <path
       style="fill:none;stroke:#000000;stroke-width:1.05833;stroke-linecap:round;stroke-linejoin:round;stroke-miterlimit:4;stroke-dasharray:none;stroke-opacity:1"
       d="m 67.001388,106.13282 c -0.685989,0.53579 -1.160599,0.86806 -1.811049,1.30169"
       id="path81821-2"
       sodipodi:nodetypes="cc" />
    <path
       style="fill:none;stroke:#000000;stroke-width:1.05833;stroke-linecap:round;stroke-linejoin:round;stroke-miterlimit:4;stroke-dasharray:none;stroke-opacity:1"
       d="m 66.86272,99.122439 c 0.54591,-1.14419 0.3793,-0.98308 1.84088,-0.80038"
       id="path81753-1-1"
       sodipodi:nodetypes="cc" />
  </g>
</svg>
