<?xml version="1.0" encoding="UTF-8" standalone="no"?>
<!-- Created with Inkscape (http://www.inkscape.org/) -->

<svg
   width="85.167458mm"
   height="75.915558mm"
   viewBox="0 0 85.167458 75.91556"
   version="1.1"
   id="svg62345"
   inkscape:version="1.1.1 (3bf5ae0d25, 2021-09-20)"
   sodipodi:docname="TytusBomba0.svg"
   xmlns:inkscape="http://www.inkscape.org/namespaces/inkscape"
   xmlns:sodipodi="http://sodipodi.sourceforge.net/DTD/sodipodi-0.dtd"
   xmlns="http://www.w3.org/2000/svg"
   xmlns:svg="http://www.w3.org/2000/svg">
  <sodipodi:namedview
     id="namedview62347"
     pagecolor="#ffffff"
     bordercolor="#666666"
     borderopacity="1.0"
     inkscape:pageshadow="2"
     inkscape:pageopacity="0.0"
     inkscape:pagecheckerboard="0"
     inkscape:document-units="px"
     showgrid="false"
     inkscape:zoom="2.5620931"
     inkscape:cx="169.39275"
     inkscape:cy="146.75501"
     inkscape:window-width="1920"
     inkscape:window-height="1010"
     inkscape:window-x="-6"
     inkscape:window-y="-6"
     inkscape:window-maximized="1"
     inkscape:current-layer="layer1">
    <inkscape:grid
       type="xygrid"
       id="grid1695"
       originx="-1.0583391"
       originy="-9.9409478e-06" />
  </sodipodi:namedview>
  <defs
     id="defs62342" />
  <g
     inkscape:label="Warstwa 1"
     inkscape:groupmode="layer"
     id="layer1"
     transform="translate(-33.008798,-110.20505)">
    <path
       style="fill:#f0f0ee;fill-opacity:1;stroke:#000000;stroke-width:1.05833;stroke-linecap:round;stroke-linejoin:round;stroke-miterlimit:4;stroke-dasharray:none;stroke-opacity:1"
       d="m 33.537963,125.72121 c 0,0 3.719547,-0.80307 12.019587,-2.13641 1.7214,-0.27653 3.70244,0.27215 5.98644,0.28209 2.97692,0.0129 6.45801,-0.97725 9.2862,-0.58855 3.17271,0.43605 7.29105,6.96185 11.12385,11.35301 0,0 5.42172,-6.82286 11.77134,-10.63576 0.56789,-0.34102 -0.61815,0.24501 0,0 7.346485,-1.58906 15.20748,-0.56751 19.33601,-0.31191 3.17439,0.19666 14.11981,2.80343 14.57234,3.50864 0.19848,0.30931 -9.83432,16.34433 -16.19858,27.57156 -3.362433,5.93168 -3.808837,9.44577 -4.627567,11.93082 1.90255,2.72516 6.747667,9.28835 8.847277,16.86776 0.0736,0.26569 -4.69049,-0.69126 -7.054061,-0.82655 -5.263068,-0.30125 -10.208096,-0.12405 -15.815006,0.0362 -8.38903,0.23969 -15.024513,0.74007 -20.612213,1.33264 -2.28814,0.24266 -18.66356,1.44441 -22.40792,1.48675 0,0 6.00025,-7.08327 9.77779,-12.13527 1.78562,-2.38806 3.26106,-3.94325 3.02689,-5.23056 -0.51675,-2.84069 -2.392013,-9.3962 -3.970097,-11.96041 -3.487669,-5.66707 -6.618654,-11.34784 -9.267324,-17.59909 -2.38952,-5.63964 -5.794956,-12.94507 -5.794956,-12.94507 z"
       id="path136165"
       sodipodi:nodetypes="cssscscssscsasccsssscc" />
    <path
       style="fill:#c6c6c4;fill-opacity:1;stroke:#000000;stroke-width:1.05833;stroke-linecap:round;stroke-linejoin:miter;stroke-miterlimit:4;stroke-dasharray:none;stroke-opacity:1"
       d="m 55.63805,124.11884 c 3.50808,2.59661 5.95021,6.37854 8.4893,10.18717 0.35225,0.52838 1.04322,2.28831 1.47148,2.71657 0.0146,0.0146 6.06969,-1.72583 6.45187,-2.49019 0.19798,-0.39595 -2.84677,-3.41698 -3.28253,-3.96168 -3.23967,-4.04959 -2.866483,-8.15684 -8.961913,-7.14093 -1.65602,0.276 -2.839727,-0.19657 -4.168207,0.68906 z"
       id="path11862"
       sodipodi:nodetypes="csssssc" />
    <path
       style="fill:#c6c6c4;fill-opacity:1;stroke:#000000;stroke-width:1.05833;stroke-linecap:round;stroke-linejoin:miter;stroke-miterlimit:4;stroke-dasharray:none;stroke-opacity:1"
       d="m 71.95404,134.63135 c 1.07753,-0.19161 7.15525,2.12409 8.13321,1.14613 0.79323,-0.79322 2.95304,-3.99406 4.86923,-6.28182 2.59053,-3.09288 4.56409,-4.54827 5.20474,-5.82958 0.06,-0.12003 -5.00134,-0.70291 -5.88592,-0.11319 -2.67347,1.78232 -6.16435,4.16759 -8.25926,6.79436 -1.40234,1.75837 -2.03444,3.43382 -4.062,4.2841 z"
       id="path12122"
       sodipodi:nodetypes="csssssc" />
    <path
       style="fill:none;stroke:#000000;stroke-width:1.05833;stroke-linecap:round;stroke-linejoin:miter;stroke-miterlimit:4;stroke-dasharray:none;stroke-opacity:1"
       d="m 71.95404,134.63135 c 5.07642,15.13219 5.41662,32.1006 5.41662,47.85712"
       id="path12626"
       sodipodi:nodetypes="cc" />
    <path
       style="fill:none;stroke:#000000;stroke-width:1.05833;stroke-linecap:butt;stroke-linejoin:miter;stroke-miterlimit:4;stroke-dasharray:none;stroke-opacity:1"
       d="m 53.48742,142.34255 c 0.90914,3.72664 0.60626,9.5182 1.453266,11.38837 2.849983,-0.82854 4.748358,-1.26417 5.217679,-1.34725 1.868732,-0.33082 1.679345,-0.64629 5.327275,-0.64629 0.16836,0 6.56506,-0.29378 6.56506,-0.45276 0,-1.17116 -0.65394,-2.59108 -0.33956,-3.84849 0.31541,-1.26165 0.2822,-3.96321 -0.33958,-5.20677 -0.2625,-0.525 -14.41642,-0.0822 -17.88414,0.11319 z"
       id="path12628"
       sodipodi:nodetypes="ccsssssc" />
    <path
       style="fill:#3e3e3e;fill-opacity:1;stroke:#000000;stroke-width:1.05833;stroke-linecap:round;stroke-linejoin:round;stroke-miterlimit:4;stroke-dasharray:none;stroke-opacity:1"
       d="m 89.93485,147.7757 c -1.95027,7.20619 0.89593,15.87551 0.11319,22.63815 -0.1243,1.07396 -1.93294,5.70311 -1.13192,6.90463 0.15415,0.23122 8.47482,-0.0842 8.6025,-0.33957 1.05074,-2.10151 -0.56597,-5.90207 -0.56597,-8.14973 0,-5.05126 1.69787,-9.21483 1.69787,-14.37522 0,-1.29116 0.60213,-4.79484 2e-5,-5.99911 -0.38486,-0.76971 -5.0936,-0.90553 -5.0936,-0.90553 0.3611,0 -1.52381,-1.40328 -1.24626,-2.19869 0.3086,-0.88438 1.75415,-1.90343 2.60574,-1.05186 2.80585,2.80586 -3.63847,3.86068 -4.98157,3.47693 z"
       id="path14187"
       sodipodi:nodetypes="csssssssasc" />
    <path
       style="fill:#5b2724;fill-opacity:1;stroke:#000000;stroke-width:1.05833;stroke-linecap:round;stroke-linejoin:round;stroke-miterlimit:4;stroke-dasharray:none;stroke-opacity:1"
       d="m 52.12914,166.1126 c 0.808437,-0.0582 0,0 0.612765,2.8682 l -2.971273,4.92375 c 0,0 24.368578,0.16025 28.052788,-0.20817 4.07696,-0.40769 20.965146,-0.25393 21.843138,-1.13191 0.539862,-0.53987 -2.055889,-5.6507 -3.121859,-5.55365 -2.695986,0.24545 -9.170279,-0.33226 -11.929829,-0.33226 -5.48894,0 -6.46581,-0.18181 -11.88502,-0.45277 -6.13533,-0.30676 -14.58893,0.34591 -20.60071,-0.11319 z"
       id="path13024"
       sodipodi:nodetypes="cccsssssc" />
    <path
       style="fill:none;stroke:#000000;stroke-width:1.05833;stroke-linecap:round;stroke-linejoin:miter;stroke-miterlimit:4;stroke-dasharray:none;stroke-opacity:1"
       d="m 42.7343,124.79799 c 0.0615,0.83384 -0.11951,4.80744 1.13191,5.43315 0.50601,0.253 13.17256,0.41033 13.24332,0.33957 1.14494,-1.14494 -1.40962,-6.20442 -1.47148,-6.45187"
       id="path13914" />
    <path
       style="fill:#000000;stroke:none;stroke-width:0.264583px;stroke-linecap:butt;stroke-linejoin:miter;stroke-opacity:1"
       d="m 62.93885,143.98382 c -0.45927,0.24776 -0.98392,0.73794 -0.92272,1.06041 0.0799,0.42096 0.69371,1.04082 1.21329,1.48406 0.53192,-0.21699 0.80878,-1.06836 0.80878,-2.04944 0,-0.71938 -0.58991,-0.24031 -1.09935,-0.49503 z"
       id="path15200"
       sodipodi:nodetypes="cscsc" />
    <path
       style="fill:#000000;fill-opacity:1;stroke:none;stroke-width:0.264583px;stroke-linecap:butt;stroke-linejoin:miter;stroke-opacity:1"
       d="m 77.03111,142.9651 c -0.53429,1.38936 0.43884,2.48975 0.89039,2.57619 0.36648,0.22849 0.58422,-0.75289 0.8105,-1.19495 0.29083,-0.56816 0.50354,-0.7158 0.0883,-1.23647 -0.18416,-0.23091 -1.35492,0.14473 -1.78918,-0.14477 z"
       id="path15202"
       sodipodi:nodetypes="ccssc" />
    <path
       style="fill:#000000;fill-opacity:1;stroke:none;stroke-width:0.264583px;stroke-linecap:butt;stroke-linejoin:miter;stroke-opacity:1"
       d="m 80.32778,153.01078 c -0.39071,-0.2262 -1.19148,-0.42447 -1.75446,-0.42447 -1.1988,0 -0.98532,1.02682 -0.53749,1.65943 0.31902,0.45064 0.72211,0.53398 0.97612,0.66098 0.65699,0.32849 1.43557,0.27371 1.79847,-0.0833 0.4809,-0.47307 0.36019,-1.39125 -0.48264,-1.81266 z"
       id="path15204"
       sodipodi:nodetypes="cssssc" />
    <path
       style="fill:#000000;fill-opacity:1;stroke:none;stroke-width:0.264583px;stroke-linecap:butt;stroke-linejoin:miter;stroke-opacity:1"
       d="m 79.86086,161.302 c -2.30681,0.0297 -1.65261,1.73886 -0.6907,2.38019 0.65176,0.43454 1.70943,0.0984 1.70943,-0.86627 0,-0.93924 -0.19538,-1.52451 -1.01873,-1.51392 z"
       id="path15206"
       sodipodi:nodetypes="ssss" />
    <path
       style="fill:#3e3e3e;fill-opacity:1;stroke:#000000;stroke-width:1.05833;stroke-linecap:round;stroke-linejoin:round;stroke-miterlimit:4;stroke-dasharray:none;stroke-opacity:1"
       d="m 78.89873,165.49005 c -0.98652,0.71062 0.845908,8.80949 0.379758,9.04256 -0.33509,0.16755 -1.814574,-0.17647 -2.271134,-0.32866 -0.87813,-0.29271 -2.109262,-0.2994 -3.015982,-0.2994 -0.40492,0 -4.25118,0.35678 -4.52763,0.0803 0,0 -0.230334,-7.33715 -0.104082,-7.46341 1.85026,0.48644 7.683281,-0.56747 9.539072,-1.03142 z"
       id="path15208"
       sodipodi:nodetypes="cssssccc" />
    <path
       style="fill:none;stroke:#000000;stroke-width:1.05833;stroke-linecap:round;stroke-linejoin:round;stroke-miterlimit:4;stroke-dasharray:none;stroke-opacity:1"
       d="m 93.67013,123.32651 c 0.0812,0.0384 -2.22938,3.60733 -2.03743,3.73529 0.90437,0.60291 3.62858,1.34617 6.68732,2.26927 3.81783,1.15218 8.09366,2.39506 9.27256,1.8056 0.43339,-0.21669 2.15064,-4.75496 2.15064,-5.54635"
       id="path15210"
       sodipodi:nodetypes="csssc" />
    <path
       style="fill:#ff735c;fill-opacity:1;stroke:#ff735c;stroke-width:1.05833;stroke-linecap:round;stroke-linejoin:round;stroke-miterlimit:4;stroke-dasharray:none;stroke-opacity:1"
       d="m 45.891943,125.97285 c -3.25862,2.24726 -0.76185,2.71159 0.71725,2.11337 0.97367,-0.3938 0.39515,-1.40679 -0.71725,-2.11337 z"
       id="path37958"
       sodipodi:nodetypes="csc" />
    <path
       style="fill:#ff735c;fill-opacity:1;stroke:#ff735c;stroke-width:1.05833;stroke-linecap:round;stroke-linejoin:round;stroke-miterlimit:4;stroke-dasharray:none;stroke-opacity:1"
       d="m 49.46255,125.57266 c -1.72034,0.61585 -1.07533,3.15066 0.16074,3.14254 1.25364,-0.008 1.73745,-2.38399 -0.16074,-3.14254 z"
       id="path37960"
       sodipodi:nodetypes="csc" />
    <path
       style="fill:#ff735c;fill-opacity:1;stroke:#ff735c;stroke-width:1.05833;stroke-linecap:round;stroke-linejoin:round;stroke-miterlimit:4;stroke-dasharray:none;stroke-opacity:1"
       d="m 54.34486,125.89281 c -4.52759,0.79916 0.0524,5.04542 1.12054,1.84087 0.25962,-0.77886 -0.56478,-1.47037 -1.12054,-1.84087 z"
       id="path37962" />
    <path
       style="fill:#ff735c;fill-opacity:1;stroke:#ff735c;stroke-width:1.05833;stroke-linecap:round;stroke-linejoin:round;stroke-miterlimit:4;stroke-dasharray:none;stroke-opacity:1"
       d="m 95.24424,125.09243 c -0.95655,0.32607 -0.51858,1.6808 0.16007,1.6808 0.6734,0 2.21945,0.21384 2.26267,-0.16162 l 0.14727,-1.27935 c 0.0782,-0.67901 -1.90647,-0.48866 -2.57001,-0.23983 z"
       id="path37964"
       sodipodi:nodetypes="csssc" />
    <path
       style="fill:#ff735c;fill-opacity:1;stroke:#ff735c;stroke-width:1.05833;stroke-linecap:round;stroke-linejoin:round;stroke-miterlimit:4;stroke-dasharray:none;stroke-opacity:1"
       d="m 99.52627,125.65269 c 0.0926,0.7912 -0.31471,1.42418 0.0249,1.77547 0.50867,0.52618 1.64687,0.27978 2.07126,0.0241 0.60269,-0.36307 0.62433,-1.47847 0.26293,-1.95813 -0.25647,-0.3404 -2.35908,0.15856 -2.35908,0.15856 z"
       id="path37968"
       sodipodi:nodetypes="csssc" />
    <path
       style="fill:#ff735c;fill-opacity:1;stroke:#ff735c;stroke-width:1.05833;stroke-linecap:round;stroke-linejoin:round;stroke-miterlimit:4;stroke-dasharray:none;stroke-opacity:1"
       d="m 104.01732,125.89281 c -1.68078,2.62511 0.0961,3.07443 1.47756,2.28577 1.28117,-0.7314 0.72396,-2.04566 -1.47756,-2.28577 z"
       id="path37970"
       sodipodi:nodetypes="csc" />
  </g>
</svg>
