<?xml version="1.0" encoding="UTF-8" standalone="no"?>
<!-- Created with Inkscape (http://www.inkscape.org/) -->

<svg
   width="85.167458mm"
   height="75.915558mm"
   viewBox="0 0 85.167458 75.91556"
   version="1.1"
   id="svg62345"
   inkscape:version="1.1.1 (3bf5ae0d25, 2021-09-20)"
   sodipodi:docname="TytusBomba0.svg"
   xmlns:inkscape="http://www.inkscape.org/namespaces/inkscape"
   xmlns:sodipodi="http://sodipodi.sourceforge.net/DTD/sodipodi-0.dtd"
   xmlns="http://www.w3.org/2000/svg"
   xmlns:svg="http://www.w3.org/2000/svg">
  <sodipodi:namedview
     id="namedview62347"
     pagecolor="#ffffff"
     bordercolor="#666666"
     borderopacity="1.0"
     inkscape:pageshadow="2"
     inkscape:pageopacity="0.0"
     inkscape:pagecheckerboard="0"
     inkscape:document-units="px"
     showgrid="false"
     inkscape:zoom="7.2466937"
     inkscape:cx="189.8797"
     inkscape:cy="108.04928"
     inkscape:window-width="1920"
     inkscape:window-height="1010"
     inkscape:window-x="-6"
     inkscape:window-y="-6"
     inkscape:window-maximized="1"
     inkscape:current-layer="layer1">
    <inkscape:grid
       type="xygrid"
       id="grid1695"
       originx="-1.0583391"
       originy="-9.9409478e-06" />
  </sodipodi:namedview>
  <defs
     id="defs62342" />
  <g
     inkscape:label="Warstwa 1"
     inkscape:groupmode="layer"
     id="layer1"
     transform="translate(-33.008798,-110.20505)">
    <path
       style="fill:#ffd1a5;fill-opacity:1;stroke:#000000;stroke-width:1.05833;stroke-linecap:round;stroke-linejoin:round;stroke-miterlimit:4;stroke-dasharray:none;stroke-opacity:1"
       d="m 40.988229,125.02874 c -3.027335,0.34645 -6.40704,-0.14722 -5.51928,2.51606 3.18162,9.54487 9.310004,21.2672 11.460634,24.17016 5.162501,3.74285 7.234755,26.44798 13.864311,27.17406 2.08246,0 6.843685,0.51072 10.921475,2.54961 6.80532,3.40266 7.187506,-0.54875 16.793076,-1.26028 6.988768,-0.83267 5.996875,-9.64286 9.105112,-16.95746 2.807683,-6.6073 3.786653,-12.471 5.180503,-13.43567 1.75817,-2.87448 11.68224,-16.42495 12.90119,-20.54851 0.0813,-0.27488 0.13323,-0.53402 0.1522,-0.77497 0.0424,-0.53841 -0.0801,-0.98594 -0.40921,-1.31505 -2.32796,-2.32796 -13.01661,-3.05948 -21.315151,-3.00012 -9.43713,0.0675 -13.728752,-0.62199 -13.728752,-0.62199 -0.44115,-6.79977 1.5907,-12.79036 1.5907,-12.79036 h -16.07911 c 0,0 2.97979,12.10598 1.24507,12.33761 -6.02281,0.8042 -24.146468,1.72616 -26.162768,1.95691 z"
       id="path88663-9-8"
       sodipodi:nodetypes="ssccscscsssssccss" />
    <path
       style="fill:none;stroke:#000000;stroke-width:1.05833;stroke-linecap:round;stroke-linejoin:round;stroke-miterlimit:4;stroke-dasharray:none;stroke-opacity:1"
       d="m 41.55145,140.42395 c 1.26259,-2.20396 0.79232,-0.0758 0.79232,1.58467"
       id="path89705-1-3" />
    <path
       style="fill:none;stroke:#000000;stroke-width:1.05833;stroke-linecap:round;stroke-linejoin:round;stroke-miterlimit:4;stroke-dasharray:none;stroke-opacity:1"
       d="m 43.58888,141.27288 c 0.21367,-1.69098 0.0419,-2.3183 1.64126,-2.54679"
       id="path89717-7-4" />
    <path
       style="fill:none;stroke:#000000;stroke-width:1.05833;stroke-linecap:round;stroke-linejoin:round;stroke-miterlimit:4;stroke-dasharray:none;stroke-opacity:1"
       d="m 46.30546,136.68866 c 0.127,0.92435 0.6373,1.86027 1.18851,2.4902"
       id="path89719-7-1" />
    <path
       style="fill:none;stroke:#000000;stroke-width:1.05833;stroke-linecap:round;stroke-linejoin:round;stroke-miterlimit:4;stroke-dasharray:none;stroke-opacity:1"
       d="m 62.33045,139.2581 c -0.11067,1.54423 0.72158,2.09687 2.15064,1.81106"
       id="path89721-2-6" />
    <path
       style="fill:none;stroke:#000000;stroke-width:1.05833;stroke-linecap:round;stroke-linejoin:round;stroke-miterlimit:4;stroke-dasharray:none;stroke-opacity:1"
       d="m 69.46148,138.52236 c -0.36362,0.0331 -0.78052,-0.0347 -1.01873,0.33957 -1.36183,2.14007 1.63301,2.18415 2.65999,2.03745"
       id="path89723-2-8" />
    <path
       style="fill:none;stroke:#000000;stroke-width:1.05833;stroke-linecap:round;stroke-linejoin:round;stroke-miterlimit:4;stroke-dasharray:none;stroke-opacity:1"
       d="m 69.34829,133.25899 c -0.11867,0.68077 -0.006,1.29015 0.22638,1.75446"
       id="path89725-5-1" />
    <path
       style="fill:none;stroke:#000000;stroke-width:1.05833;stroke-linecap:round;stroke-linejoin:round;stroke-miterlimit:4;stroke-dasharray:none;stroke-opacity:1"
       d="m 87.484794,139.90594 c -0.11867,0.68077 -0.006,1.29015 0.22638,1.75446"
       id="path89725-5-1-5" />
    <path
       style="fill:none;stroke:#000000;stroke-width:1.05833;stroke-linecap:round;stroke-linejoin:round;stroke-miterlimit:4;stroke-dasharray:none;stroke-opacity:1"
       d="m 70.055377,173.23815 c 0.11867,0.68077 0.006,1.29015 -0.22638,1.75446"
       id="path89725-5-1-3" />
    <path
       style="fill:none;stroke:#000000;stroke-width:1.05833;stroke-linecap:round;stroke-linejoin:round;stroke-miterlimit:4;stroke-dasharray:none;stroke-opacity:1"
       d="m 71.855456,135.03326 c -0.52851,0.15515 -0.44524,0.27776 -0.67914,0.79234"
       id="path89727-4-8" />
    <path
       style="fill:none;stroke:#000000;stroke-width:1.05833;stroke-linecap:round;stroke-linejoin:round;stroke-miterlimit:4;stroke-dasharray:none;stroke-opacity:1"
       d="m 85.916964,138.41427 c -0.15515,-0.52851 -0.27776,-0.44524 -0.79234,-0.67914"
       id="path89727-4-8-5" />
    <path
       style="fill:none;stroke:#000000;stroke-width:1.05833;stroke-linecap:round;stroke-linejoin:round;stroke-miterlimit:4;stroke-dasharray:none;stroke-opacity:1"
       d="m 68.516198,177.75951 c 0.52851,0.15515 0.44524,0.27776 0.67914,0.79234"
       id="path89727-4-8-2" />
    <path
       style="fill:none;stroke:#000000;stroke-width:1.05833;stroke-linecap:round;stroke-linejoin:round;stroke-miterlimit:4;stroke-dasharray:none;stroke-opacity:1"
       d="m 76.70569,139.03172 c 0.459,1.45109 1.39697,1.1745 2.2638,0.67915"
       id="path89729-6-6" />
    <path
       style="fill:none;stroke:#000000;stroke-width:1.05833;stroke-linecap:round;stroke-linejoin:round;stroke-miterlimit:4;stroke-dasharray:none;stroke-opacity:1"
       d="m 81.28991,142.14447 c 0,1.83001 -0.0675,-0.40496 0.11319,0.67914"
       id="path89731-0-3" />
    <path
       style="fill:none;stroke:#000000;stroke-width:1.05833;stroke-linecap:round;stroke-linejoin:round;stroke-miterlimit:4;stroke-dasharray:none;stroke-opacity:1"
       d="m 51.37874,143.22145 c 3.46214,1.89514 7.43121,1.85086 11.21281,1.54096 0.34985,-0.0287 1.64427,-0.0337 2.00341,-0.25163 0.37451,-0.22726 0.33273,-1.46629 -0.12943,-1.57938 -0.5611,-0.1373 -0.60877,1.11927 -0.11933,1.31583 1.02709,0.41247 5.02546,-0.48027 6.16679,-0.80741 1.0162,-0.29129 3.053151,-1.31387 3.770801,-1.74936 2.40548,-0.61734 1.948858,-0.0134 3.855569,1.14926 2.74254,1.71237 4.5388,2.52309 8.7078,2.52309 0.65374,0 2.56137,0.0712 1.58466,-0.90552 -0.65581,-0.65581 -2.89843,0.84893 0.79234,0.84893 5.90727,0 8.04386,-0.0426 11.99822,-2.37701"
       id="path89733-7-2"
       sodipodi:nodetypes="csssssccsssc" />
    <path
       style="fill:none;stroke:#000000;stroke-width:1.05833;stroke-linecap:round;stroke-linejoin:round;stroke-miterlimit:4;stroke-dasharray:none;stroke-opacity:1"
       d="m 69.597318,150.06782 c 0.91612,0.32643 2.37699,0.81142 2.37699,-0.50935"
       id="path89735-0-7" />
    <path
       style="fill:none;stroke:#000000;stroke-width:1.05833;stroke-linecap:round;stroke-linejoin:round;stroke-miterlimit:4;stroke-dasharray:none;stroke-opacity:1"
       d="m 79.558088,152.33163 c 0,1.74945 -0.0279,-0.41869 0.0566,0.84893"
       id="path89737-0-8" />
    <path
       style="fill:none;stroke:#000000;stroke-width:1.05833;stroke-linecap:round;stroke-linejoin:round;stroke-miterlimit:4;stroke-dasharray:none;stroke-opacity:1"
       d="m 81.878508,151.08653 c 0.26596,0.5982 0.40891,1.29611 0.56594,1.92425"
       id="path89739-7-3" />
    <path
       style="fill:none;stroke:#000000;stroke-width:1.05833;stroke-linecap:round;stroke-linejoin:round;stroke-miterlimit:4;stroke-dasharray:none;stroke-opacity:1"
       d="m 74.747488,147.12486 c -1.99118,2.93042 2.5932,2.48002 1.35829,1.2451 -0.5851,-0.5851 -1.17475,1.61504 1.41488,1.2451"
       id="path89815-8-8" />
    <path
       style="fill:none;stroke:#000000;stroke-width:1.05833;stroke-linecap:round;stroke-linejoin:round;stroke-miterlimit:4;stroke-dasharray:none;stroke-opacity:1"
       d="m 95.409975,153.87193 c -1.53733,1.62416 -3.06739,3.02438 -4.41444,4.64081"
       id="path90471-9" />
    <path
       style="fill:none;stroke:#000000;stroke-width:1.05833;stroke-linecap:round;stroke-linejoin:round;stroke-miterlimit:4;stroke-dasharray:none;stroke-opacity:1"
       d="m 94.844035,157.60722 c -1.01145,2.05702 -2.03398,4.4876 -3.96168,5.77272"
       id="path90473-1" />
    <path
       style="fill:none;stroke:#000000;stroke-width:1.05833;stroke-linecap:round;stroke-linejoin:round;stroke-miterlimit:4;stroke-dasharray:none;stroke-opacity:1"
       d="m 95.525996,161.94525 c -0.83087,2.45082 -3.32626,4.45817 -4.98038,6.11229"
       id="path90475-5" />
    <path
       style="fill:none;stroke:#000000;stroke-width:1.05833;stroke-linecap:round;stroke-linejoin:round;stroke-miterlimit:4;stroke-dasharray:none;stroke-opacity:1"
       d="m 55.72538,163.31206 c 1.5295,1.4667 3.28379,2.71721 5.09358,3.6221"
       id="path90477-7" />
    <path
       style="fill:none;stroke:#000000;stroke-width:1.05833;stroke-linecap:round;stroke-linejoin:round;stroke-miterlimit:4;stroke-dasharray:none;stroke-opacity:1"
       d="m 56.21209,159.53715 c 1.00165,1.99406 3.19826,2.84904 4.52763,3.73528"
       id="path90479-7" />
    <path
       style="fill:none;stroke:#000000;stroke-width:1.05833;stroke-linecap:round;stroke-linejoin:round;stroke-miterlimit:4;stroke-dasharray:none;stroke-opacity:1"
       d="m 55.37445,155.00384 c 0.98658,1.35024 2.94005,2.18129 4.07487,2.82976"
       id="path90481-6" />
    <path
       style="fill:none;stroke:#000000;stroke-width:1.05833;stroke-linecap:round;stroke-linejoin:round;stroke-miterlimit:4;stroke-dasharray:none;stroke-opacity:1"
       d="m 105.55762,138.62796 c -1.08611,-1.05818 -0.81277,-1.0689 -1.01872,-2.71658"
       id="path90723-1" />
    <path
       style="fill:none;stroke:#000000;stroke-width:1.05833;stroke-linecap:round;stroke-linejoin:round;stroke-miterlimit:4;stroke-dasharray:none;stroke-opacity:1"
       d="m 107.70824,137.26967 c -1.76046,-0.12177 -0.55896,-2.03045 -1.24511,-2.71658"
       id="path90764-6" />
    <path
       style="fill:none;stroke:#000000;stroke-width:1.05833;stroke-linecap:round;stroke-linejoin:round;stroke-miterlimit:4;stroke-dasharray:none;stroke-opacity:1"
       d="m 93.63858,142.25006 c -0.2177,0.83283 0.34216,0.68428 0,0 z"
       id="path90768-4" />
    <path
       style="fill:none;stroke:#000000;stroke-width:1.05833;stroke-linecap:round;stroke-linejoin:round;stroke-miterlimit:4;stroke-dasharray:none;stroke-opacity:1"
       d="m 76.557912,173.94795 c -0.2177,0.83283 0.34216,0.68428 0,0 z"
       id="path90768-4-8" />
    <path
       style="fill:#000000;stroke:#000000;stroke-width:1.05833;stroke-linecap:round;stroke-linejoin:round;stroke-miterlimit:4;stroke-dasharray:none;stroke-opacity:1"
       d="m 93.7518,139.87305 c -0.11713,1.76609 1.55612,-0.38903 0,0 z"
       id="path90770-2" />
    <ellipse
       style="fill:#000000;fill-opacity:1;stroke:none;stroke-width:1.05833;stroke-linecap:round;stroke-linejoin:round;stroke-miterlimit:4;stroke-dasharray:none;stroke-opacity:1"
       id="path91491-3"
       cx="65.575394"
       cy="125.5402"
       rx="0.58027506"
       ry="0.54025602" />
    <ellipse
       style="fill:#000000;fill-opacity:1;stroke:none;stroke-width:1.05833;stroke-linecap:round;stroke-linejoin:round;stroke-miterlimit:4;stroke-dasharray:none;stroke-opacity:1"
       id="path91491-3-3"
       cx="73.903099"
       cy="173.40533"
       rx="0.58027506"
       ry="0.54025602" />
    <path
       style="fill:none;stroke:#000000;stroke-width:1.05833;stroke-linecap:round;stroke-linejoin:round;stroke-miterlimit:4;stroke-dasharray:none;stroke-opacity:1"
       d="m 41.80163,139.03767 c -0.0837,-1.95906 3.31065,-1.55705 3.3616,-1.76083 0.10723,-0.42895 -0.13048,-0.80915 0,-1.20057"
       id="path91766-4" />
    <path
       style="fill:none;stroke:#000000;stroke-width:1.05833;stroke-linecap:round;stroke-linejoin:round;stroke-miterlimit:4;stroke-dasharray:none;stroke-opacity:1"
       d="m 64.79497,138.44631 c 0.68653,0.52829 1.5531,1.63315 2.16102,2.24106"
       id="path91770-2" />
    <path
       style="fill:none;stroke:#000000;stroke-width:1.05833;stroke-linecap:round;stroke-linejoin:round;stroke-miterlimit:4;stroke-dasharray:none;stroke-opacity:1"
       d="m 70.753448,169.58107 c 0.98714,-0.10672 1.97427,-0.21344 2.96141,-0.32015"
       id="path91774-7" />
    <path
       style="fill:none;stroke:#000000;stroke-width:1.05833;stroke-linecap:round;stroke-linejoin:round;stroke-miterlimit:4;stroke-dasharray:none;stroke-opacity:1"
       d="m 72.194138,171.26186 c 2.26681,-0.25209 2.6018,0.14802 3.52636,1.77608"
       id="path91776-7" />
    <path
       style="fill:none;stroke:#000000;stroke-width:1.05833;stroke-linecap:round;stroke-linejoin:round;stroke-miterlimit:4;stroke-dasharray:none;stroke-opacity:1"
       d="m 77.383339,168.7496 c 2.79598,0.70228 2.51621,-0.15489 2.72129,1.28061"
       id="path91778-2" />
    <path
       style="fill:none;stroke:#000000;stroke-width:1.05833;stroke-linecap:round;stroke-linejoin:round;stroke-miterlimit:4;stroke-dasharray:none;stroke-opacity:1"
       d="m 75.875888,166.37956 c 2.78016,1.09468 0.71662,-1.12053 1.9209,-1.12053"
       id="path91780-0" />
    <path
       style="fill:none;stroke:#000000;stroke-width:1.05833;stroke-linecap:round;stroke-linejoin:round;stroke-miterlimit:4;stroke-dasharray:none;stroke-opacity:1"
       d="m 77.716758,173.18277 c -0.29777,-2.08436 -0.42688,-0.40503 0.80039,-1.52071 0.15914,-0.14468 -0.13222,-0.43164 -0.0801,-0.64031 0.0513,-0.20526 0.31801,-0.31584 0.40021,-0.48023"
       id="path91786-9" />
    <path
       style="fill:none;stroke:#000000;stroke-width:1.05833;stroke-linecap:round;stroke-linejoin:round;stroke-miterlimit:4;stroke-dasharray:none;stroke-opacity:1"
       d="m 73.59915,139.00658 c -0.0534,-0.1334 -0.26689,-0.30408 -0.1601,-0.40019 0.25085,-0.22576 0.66746,-0.15272 0.96046,-0.32015 0.25374,-0.14499 0.23712,-0.95971 0.56028,-1.0405 0.22651,-0.0566 1.12366,0.32173 0.6403,0.08"
       id="path91792-7" />
    <path
       style="fill:none;stroke:#000000;stroke-width:1.05833;stroke-linecap:round;stroke-linejoin:round;stroke-miterlimit:4;stroke-dasharray:none;stroke-opacity:1"
       d="m 76.64059,134.84461 c 0.08,0.29347 0.0111,0.6801 0.24011,0.88041 0.26786,0.23439 0.70826,0.11234 1.0405,0.24011 0.41428,0.15934 -0.4649,0.99112 -0.32018,1.28061 0.0726,0.14515 0.3351,0.007 0.48025,0.08"
       id="path91796-9" />
    <path
       style="fill:none;stroke:#000000;stroke-width:1.05833;stroke-linecap:round;stroke-linejoin:round;stroke-miterlimit:4;stroke-dasharray:none;stroke-opacity:1"
       d="m 80.16224,137.08567 c -0.24011,-0.53359 -0.54128,-1.04371 -0.72033,-1.60076 -0.0653,-0.2032 0.0562,-0.43439 0,-0.6403 -0.13414,-0.49188 -0.97745,-0.35414 -1.20057,-0.80039"
       id="path91798-0" />
    <path
       style="fill:none;stroke:#000000;stroke-width:1.05833;stroke-linecap:round;stroke-linejoin:round;stroke-miterlimit:4;stroke-dasharray:none;stroke-opacity:1"
       d="m 74.39951,135.40487 c -0.12385,1.39302 -1.23835,1.21946 -2.16101,1.6808"
       id="path91800-4" />
    <path
       style="fill:none;stroke:#000000;stroke-width:1.05833;stroke-linecap:round;stroke-linejoin:round;stroke-miterlimit:4;stroke-dasharray:none;stroke-opacity:1"
       d="m 84.393852,139.14476 c -0.12385,1.39302 -1.23835,1.21946 -2.16101,1.6808"
       id="path91800-4-8" />
    <path
       style="fill:none;stroke:#000000;stroke-width:1.05833;stroke-linecap:round;stroke-linejoin:round;stroke-miterlimit:4;stroke-dasharray:none;stroke-opacity:1"
       d="m 68.95694,136.84555 c 1.38218,-0.55343 1.39468,1.76084 2.40113,1.76084"
       id="path91802-5" />
    <path
       style="fill:none;stroke:#000000;stroke-width:1.05833;stroke-linecap:round;stroke-linejoin:round;stroke-miterlimit:4;stroke-dasharray:none;stroke-opacity:1"
       d="m 84.180843,143.61497 c 0.24012,-0.29347 0.64598,-0.50861 0.72034,-0.88042 0.0762,-0.3809 -0.2328,-0.74203 -0.32015,-1.12052 -0.0274,-0.11877 0.94369,-0.36665 1.04049,-0.56028"
       id="path91804-8-3" />
    <path
       style="fill:none;stroke:#000000;stroke-width:1.05833;stroke-linecap:round;stroke-linejoin:round;stroke-miterlimit:4;stroke-dasharray:none;stroke-opacity:1"
       d="m 75.1999,133.40392 c 2.00308,0.14717 1.33395,-1.57408 2.40112,-1.84087"
       id="path91806-7" />
    <path
       style="fill:none;stroke:#000000;stroke-width:1.05833;stroke-linecap:round;stroke-linejoin:round;stroke-miterlimit:4;stroke-dasharray:none;stroke-opacity:1"
       d="m 73.641907,178.44873 c 0.24012,0.29347 0.64598,0.50861 0.72034,0.88042 0.0762,0.3809 -0.2328,0.74203 -0.32015,1.12052 -0.0274,0.11877 0.94369,0.36665 1.04049,0.56028"
       id="path91804-8-6" />
    <path
       style="fill:none;stroke:#000000;stroke-width:1.05833;stroke-linecap:round;stroke-linejoin:round;stroke-miterlimit:4;stroke-dasharray:none;stroke-opacity:1"
       d="m 76.229742,178.17306 c -0.14717,2.00308 1.57408,1.33395 1.84087,2.40112"
       id="path91806-7-0" />
    <path
       style="fill:none;stroke:#000000;stroke-width:1.05833;stroke-linecap:round;stroke-linejoin:round;stroke-miterlimit:4;stroke-dasharray:none;stroke-opacity:1"
       d="m 74.408223,177.44094 c -0.32016,-0.34681 -0.70322,-0.64473 -0.96046,-1.04047 -0.62427,-0.96044 0.70172,-1.20057 1.28061,-1.20057 0.7069,0 0.33709,1.50376 1.2806,0.56025"
       id="path91808-1-2" />
    <path
       style="fill:none;stroke:#000000;stroke-width:1.05833;stroke-linecap:round;stroke-linejoin:round;stroke-miterlimit:4;stroke-dasharray:none;stroke-opacity:1"
       d="m 71.889931,178.85331 c -1.05649,0.97202 -1.28061,0.0116 -1.28061,-0.80037"
       id="path91810-5-9" />
    <path
       style="fill:none;stroke:#000000;stroke-width:1.05833;stroke-linecap:round;stroke-linejoin:round;stroke-miterlimit:4;stroke-dasharray:none;stroke-opacity:1"
       d="m 71.161576,172.4537 c 1.15669,-0.24556 0.50858,0.44662 0.88042,0.88043 0.79206,0.92406 0.17569,0.21863 0.72034,0.40018 0.0366,0.0122 0.0352,0.38526 0.32015,0.48022"
       id="path91812-6-4" />
    <path
       style="fill:none;stroke:#000000;stroke-width:1.05833;stroke-linecap:round;stroke-linejoin:round;stroke-miterlimit:4;stroke-dasharray:none;stroke-opacity:1"
       d="m 80.235276,175.38182 c 0.12466,-1.07394 -1.15443,0.68647 -1.52073,0.32018 -0.0485,-0.0485 -0.0356,-0.74258 0.08,-0.8004 0.21609,-0.10802 0.7924,0.15055 0.72035,-0.08 -0.14102,-0.45125 -0.2668,-0.9071 -0.4002,-1.36065"
       id="path91814-1-8" />
    <path
       style="fill:none;stroke:#000000;stroke-width:1.05833;stroke-linecap:round;stroke-linejoin:round;stroke-miterlimit:4;stroke-dasharray:none;stroke-opacity:1"
       d="m 79.059308,176.78852 c -0.18675,-0.0267 -0.3985,-0.17711 -0.56026,-0.08 -0.17423,0.10453 -0.11821,0.39772 -0.24012,0.56025 -1.07799,1.43732 -1.08502,-0.62336 -1.12053,-1.12054"
       id="path91816-2-1" />
    <path
       style="fill:none;stroke:#000000;stroke-width:1.05833;stroke-linecap:round;stroke-linejoin:round;stroke-miterlimit:4;stroke-dasharray:none;stroke-opacity:1"
       d="m 68.95694,136.84555 c -1.65952,-0.20139 -2.16103,0.0202 -2.16103,1.28061"
       id="path91818-0" />
    <path
       style="fill:none;stroke:#000000;stroke-width:1.05833;stroke-linecap:round;stroke-linejoin:round;stroke-miterlimit:4;stroke-dasharray:none;stroke-opacity:1"
       d="m 69.03697,142.84841 c -0.16914,-0.73209 0.56027,-0.23297 0.56027,-1.04051"
       id="path91820-9" />
    <path
       style="fill:none;stroke:#000000;stroke-width:1.05833;stroke-linecap:round;stroke-linejoin:round;stroke-miterlimit:4;stroke-dasharray:none;stroke-opacity:1"
       d="m 71.10274,140.89938 c 0.45862,-0.31078 0.84168,-0.78551 1.37587,-0.93235 1.19933,-0.32963 0.50954,2.90899 1.12054,-0.96045"
       id="path91822-3" />
    <path
       style="fill:none;stroke:#000000;stroke-width:1.05833;stroke-linecap:round;stroke-linejoin:round;stroke-miterlimit:4;stroke-dasharray:none;stroke-opacity:1"
       d="m 81.2899,142.14447 c -3.30097,-2.00517 -1.43457,-1.15017 -0.56738,-2.01736"
       id="path91824-8" />
    <path
       style="fill:none;stroke:#000000;stroke-width:1.05833;stroke-linecap:round;stroke-linejoin:round;stroke-miterlimit:4;stroke-dasharray:none;stroke-opacity:1"
       d="m 80.72252,140.12711 c -0.50797,-2.44192 1.21547,-2.05117 1.76083,-0.96046"
       id="path91826-1" />
    <path
       style="fill:none;stroke:#000000;stroke-width:1.05833;stroke-linecap:round;stroke-linejoin:round;stroke-miterlimit:4;stroke-dasharray:none;stroke-opacity:1"
       d="m 82.00311,135.80506 c -0.0496,0.54002 -0.49244,0.85595 -0.24011,1.36064"
       id="path91828-8" />
    <path
       style="fill:none;stroke:#000000;stroke-width:1.05833;stroke-linecap:round;stroke-linejoin:round;stroke-miterlimit:4;stroke-dasharray:none;stroke-opacity:1"
       d="m 71.589954,133.54093 c 0.54002,0.0496 0.85595,0.49244 1.36064,0.24011"
       id="path91828-8-2" />
    <path
       style="fill:none;stroke:#000000;stroke-width:1.05833;stroke-linecap:round;stroke-linejoin:round;stroke-miterlimit:4;stroke-dasharray:none;stroke-opacity:1"
       d="m 79.92213,133.32388 c 1.79663,1.73646 3.55383,1.24869 1.44069,-0.16007"
       id="path91830-6" />
    <path
       style="fill:none;stroke:#000000;stroke-width:1.05833;stroke-linecap:round;stroke-linejoin:round;stroke-miterlimit:4;stroke-dasharray:none;stroke-opacity:1"
       d="m 79.309521,179.22657 c 1.79663,1.73646 3.55383,1.24869 1.44069,-0.16007"
       id="path91830-6-5" />
    <path
       style="fill:none;stroke:#000000;stroke-width:1.05833;stroke-linecap:round;stroke-linejoin:round;stroke-miterlimit:4;stroke-dasharray:none;stroke-opacity:1"
       d="m 84.16415,133.96419 c 0.0257,0.80031 1.2034,3.20293 -0.40019,2.40113"
       id="path91832-6" />
    <path
       style="fill:none;stroke:#000000;stroke-width:1.05833;stroke-linecap:round;stroke-linejoin:round;stroke-miterlimit:4;stroke-dasharray:none;stroke-opacity:1"
       d="m 106.57632,141.23134 c -0.098,-1.38742 0.41804,-1.51988 1.35829,-2.71658 0.14632,-0.18621 -0.0198,-0.88571 0.11319,-1.01871 0.4662,-0.4662 1.11424,-0.41738 1.47148,-1.13191 0.13274,-0.26544 -0.28384,-0.86105 -0.45275,-0.67914 -0.4734,0.50981 -0.90554,1.05645 -1.35829,1.58467"
       id="path91947-7" />
    <path
       style="fill:none;stroke:#000000;stroke-width:1.05833;stroke-linecap:round;stroke-linejoin:round;stroke-miterlimit:4;stroke-dasharray:none;stroke-opacity:1"
       d="m 57.986351,171.60324 c 0.009,1.41219 1.60467,2.09481 2.64859,2.69447 2.22086,1.27574 5.13916,1.37784 7.42538,1.71998 1.3731,0.20548 3.74412,0.43683 4.41445,1.81104"
       id="path92542-9"
       sodipodi:nodetypes="cssc" />
    <path
       style="fill:none;stroke:#000000;stroke-width:1.05833;stroke-linecap:round;stroke-linejoin:round;stroke-miterlimit:4;stroke-dasharray:none;stroke-opacity:1"
       d="m 92.283151,171.71776 c -0.42873,0.51245 -0.553711,1.39574 -1.13191,1.81104 -2.164835,1.55492 -6.416227,1.65598 -7.779047,1.85066 -2.85607,0.40802 -4.445553,2.67697 -4.445553,2.67697"
       id="path92827-6"
       sodipodi:nodetypes="cacc" />
    <path
       style="fill:none;stroke:#000000;stroke-width:1.05833;stroke-linecap:round;stroke-linejoin:round;stroke-miterlimit:4;stroke-dasharray:none;stroke-opacity:1"
       d="m 68.205308,154.01813 c -0.03427,4.58026 -2.190652,8.18219 -2.190652,12.55975"
       id="path932" />
    <path
       style="fill:none;stroke:#000000;stroke-width:1.05833;stroke-linecap:round;stroke-linejoin:round;stroke-miterlimit:4;stroke-dasharray:none;stroke-opacity:1"
       d="m 79.614689,153.18056 c 1.08949,2.79401 2.018371,4.28843 4.801462,8.72393"
       id="path934"
       sodipodi:nodetypes="cc" />
    <path
       style="fill:none;stroke:#000000;stroke-width:1.05833;stroke-linecap:round;stroke-linejoin:round;stroke-miterlimit:4;stroke-dasharray:none;stroke-opacity:1"
       d="m 76.049187,155.72736 c -0.967271,4.7254 -0.44459,14.72385 -0.328689,17.31058"
       id="path938" />
    <path
       style="fill:none;stroke:#000000;stroke-width:1.05833;stroke-linecap:round;stroke-linejoin:round;stroke-miterlimit:4;stroke-dasharray:none;stroke-opacity:1"
       d="m 71.633868,167.09989 c 1.725753,0.38665 7.928229,-1.36233 6.162921,0.4002"
       id="path942" />
    <path
       style="fill:none;stroke:#000000;stroke-width:1.05833;stroke-linecap:round;stroke-linejoin:round;stroke-miterlimit:4;stroke-dasharray:none;stroke-opacity:1"
       d="m 71.710357,161.5204 c 4.452021,-0.9796 0,0 4.452021,-0.9796"
       id="path944"
       sodipodi:nodetypes="cc" />
    <path
       style="fill:none;stroke:#000000;stroke-width:1.05833;stroke-linecap:round;stroke-linejoin:round;stroke-miterlimit:4;stroke-dasharray:none;stroke-opacity:1"
       d="m 75.288423,161.68542 c 0.289295,-0.0951 5.746197,-0.6344 3.024584,-0.0721"
       id="path946" />
  </g>
</svg>
